<svg height="512" viewBox="0 0 60 60" width="512" xmlns="http://www.w3.org/2000/svg"><g id="Page-1" fill="none" fill-rule="evenodd"><g id="038---Cloud-Error" fill-rule="nonzero"><path id="Shape" d="m13 37h-1c-6.07513225 0-11-4.9248678-11-11s4.92486775-11 11-11c.623565-.0030798 1.2461215.0504735 1.86.16 1.427149-3.0326141 4.4212431-5.02097 7.77-5.16 1.9678376-6.08875505 8.0738821-9.84005753 14.3946544-8.84348326s10.976386 6.4446301 10.9753456 12.84348326c.019924.3497165.019924.7002835 0 1.05.34 0 .7-.05 1-.05 6.0751322.0000001 10.9999998 4.9248678 10.9999998 11s-4.9248676 10.9999999-10.9999998 11z" fill="#e8edfc"/><path id="Shape" d="m48 15c-.35 0-.71 0-1 .05.019924-.3497165.019924-.7002835 0-1.05 0-3.4478144-1.3696389-6.75441524-3.8076118-9.19238816-2.437973-2.43797292-5.7445738-3.80761184-9.1923882-3.80761184-.49788.00446883-.9952019.0345084-1.49.09 6.5501491.76600988 11.4889823 6.31521239 11.49 12.91.019924.3497165.019924.7002835 0 1.05.34 0 .7-.05 1-.05 5.6723409.0182317 10.4006953 4.3467764 10.9186843 9.9954462s-3.3442621 10.7649821-8.9186843 11.8145538v.19h1c6.0751322 0 11-4.9248678 11-11s-4.9248678-11-11-11z" fill="#cad9fc"/><path id="Shape" d="m40.83 9.15c-.2923118.00001923-.5699973-.12786225-.76-.35-1.5177498-1.77444941-3.7349995-2.79723347-6.07-2.8-.5522847 0-1-.44771525-1-1s.4477153-1 1-1c2.9180174.00022682 5.6903707 1.27499794 7.59 3.49.1724034.201559.2576705.46335301.2370412.72778336-.0206293.26443034-.145465.50983336-.3470412.68221664-.179713.15852397-.4103774.24724105-.65.25z" fill="#fff"/><path id="Shape" d="m30 59h20c2.5520522-.015158 4.8936133-1.4180213 6.1108767-3.6611152 1.2172633-2.2430938 1.1173008-4.9709028-.2608767-7.1188848l-20-30.11c-1.2959066-1.9609884-3.4895002-3.1406736-5.84-3.1406736s-4.5440934 1.1796852-5.84 3.1406736l-20.01 30.09c-1.388054 2.1472979-1.49490713 4.8805738-.27872365 7.1296802s3.56189317 3.6561817 6.11872365 3.6703198z" fill="#e8edfc"/><path id="Shape" d="m55.82 48.23-20-30.11c-1.5912616-2.4269021-4.5149973-3.6202636-7.35-3 1.7888684.3872566 3.3523299 1.4655059 4.35 3l20 30.11c1.3700413 2.1430451 1.4697921 4.8606138.2605507 7.0983338s-3.537156 3.6434027-6.0805507 3.6716662h3c2.5433947-.0282635 4.8713093-1.4339462 6.0805507-3.6716662s1.1094906-4.9552887-.2605507-7.0983338z" fill="#cad9fc"/><path id="Shape" d="m10 55c-1.10934687.020634-2.13518413-.5871262-2.65-1.57-.52202535-.9465679-.46791094-2.1061624.14-3l20-30.08c.5558236-.8379356 1.4944773-1.3416876 2.5-1.3416876s1.9441764.503752 2.5 1.3416876l20 30.11c.6125106.8922979.6667484 2.0545367.14 3-.5197045.9647597-1.5343276 1.5588736-2.63 1.54z" fill="#fff"/><path id="Shape" d="m52.48 50.44-20-30.11c-.5545586-.8276078-1.4837804-1.3259405-2.48-1.33-.5221431-.0018815-1.035736.1325488-1.49.39.4014901.2318527.7437797.5536049 1 .94l20 30.11c.6125106.8922979.6667484 2.0545367.14 3-.5157985.980678-1.542229 1.5849164-2.65 1.56h3c1.1093469.020634 2.1351841-.5871262 2.65-1.57.5137557-.9485231.4479561-2.1058217-.17-2.99z" fill="#e8edfc"/><path id="Shape" d="m33 30c0 1.66-3 11-3 11s-3-9.34-3-11c0-1.6568542 1.3431458-3 3-3s3 1.3431458 3 3z" fill="#7facfa"/><circle id="Oval" cx="30" cy="48" fill="#7facfa" r="3"/><path id="Shape" d="m11.84 36.53c-4.93936914-1.4839955-8.18449453-6.2004914-7.80509484-11.3439986s4.2814419-9.3328077 9.38509484-10.0760014c-4.04090287-.5667907-8.06353727 1.1498482-10.45016452 4.4595548-2.38662725 3.3097067-2.74505626 7.6686016-.93114156 11.323716s5.50209505 6.0058084 9.58130608 6.1067292" fill="#fff"/><path id="Shape" d="m3 18 1.5 1.33c-1.61650993 1.8454656-2.50526783 4.2166717-2.5 6.67h-2c-.01069462-2.9435792 1.0564383-5.789267 3-8z" fill="#fff"/><g fill="#428dff"><path id="Shape" d="m40.07 8.8c.1900027.22213775.4676882.35001923.76.35.2396226-.00275895.470287-.09147603.65-.25.2015762-.17238328.3264119-.4177863.3470412-.68221664.0206293-.26443035-.0646378-.52622436-.2370412-.72778336-1.8996293-2.21500206-4.6719826-3.48977318-7.59-3.49-.5522847 0-1 .44771525-1 1s.4477153 1 1 1c2.3350005.00276653 4.5522502 1.02555059 6.07 2.8z"/><path id="Shape" d="m1.73 23.07c.55228475 0 1-.4477153 1-1s-.44771525-1-1-1-1 .4477153-1 1 .44771525 1 1 1z"/><path id="Shape" d="m60 26c0-6.627417-5.372583-12-12-12-.0137806-6.75848529-4.8538456-12.54228148-11.5040745-13.74717535s-13.2118426 2.51313692-15.5959255 8.83717535c-3.1853678.34613608-6.0079851 2.2080208-7.58 5-.4379481-.0548953-.8786538-.0849434-1.32-.09-3.4341585-.0159154-6.71057329 1.4402689-9 4-.18078673.2043618-.27021753.4737215-.2475585.7456299.02265904.2719084.15543998.5227504.3675585.6943701.42373445.3102558 1.01076492.2634635 1.38-.11 1.90846035-2.1318738 4.63872273-3.3441103 7.5-3.33 1.9730774-.0063323 3.9027673.5788444 5.54 1.68.1655373.1112428.3605573.1704453.56.17.3326261.0005011.6437296-.1644212.83-.44.1552856-.2214944.2142142-.4964502.1633396-.7621289-.0508747-.2656786-.207212-.4994133-.4333396-.6478711-1.0022971-.6732402-2.1016771-1.1892069-3.26-1.53 1.4344209-2.0914501 3.7755523-3.3788869 6.31-3.47h.22c1.2656239-.0093712 2.5157918.2783386 3.65.84.3213297.1723181.7109796.1560848 1.0168628-.0423636s.4795102-.5476534.4531117-.9113146-.2486379-.6841298-.5799745-.8363218c-1.0654588-.53131739-2.2165443-.86987195-3.4-1 2.3323342-5.14656114 7.9390054-7.96881514 13.4621635-6.77650671 5.523158 1.19230844 9.466287 6.07611981 9.4678365 11.72650671v.17c-1.6662638.2699658-3.2552963.893985-4.66 1.83-.4583963.3092795-.5792795.9316037-.27 1.39s.9316037.5792795 1.39.27c1.6394914-1.0940872 3.5690082-1.6722457 5.54-1.66 5.5228475-.2402439 10.1947561 4.0421525 10.435 9.565s-4.0421525 10.1947561-9.565 10.435l-12.19-18.43c-1.4866092-2.2354543-3.9953726-3.5762156-6.68-3.57-2.6791867-.0050863-5.1830535 1.3313104-6.67 3.56l-12.22 18.44c-5.17259771-.4621542-9.13060492-4.8068382-9.11-10 0-.5522847-.44771525-1-1-1s-1 .4477153-1 1c-.0231242 5.8157506 4.15070179 10.8006845 9.88 11.8l-6.55 9.84c-1.63201494 2.4477605-1.77885227 5.5966854-.38170683 8.1856986 1.39714544 2.5890131 4.10983942 4.1948091 7.05170683 4.1743014h40c2.9221763-.0147501 5.6038196-1.6216275 6.9949497-4.1914697 1.3911302-2.5698422 1.2703884-5.6937319-.3149497-8.1485303l-6.58-9.86c5.7394443-.98684 9.9255932-5.9763913 9.9-11.8zm-4.73 28.85c-1.0323744 1.9500558-3.0635743 3.1641507-5.27 3.15h-40c-2.21934581.0234598-4.26537118-1.1964345-5.3-3.16-1.0517883-1.925215-.93591319-4.2774797.3-6.09l20-30.08c1.1147192-1.6707787 2.9914952-2.6729771 5-2.67 2.0104036-.0007506 3.8875767 1.0054142 5 2.68l20 30.1c1.2228416 1.8120535 1.3271264 4.1565311.27 6.07z"/><path id="Shape" d="m30 18c-1.3378226-.0008689-2.5875086.6671314-3.33 1.78l-20 30.08c-.79966007 1.1951116-.87277972 2.7344725-.19 4 .68758066 1.3091314 2.04130786 2.132136 3.52 2.14h40c1.4736682.0037026 2.8300101-.8031863 3.53-2.1.6880196-1.2631757.6186948-2.8037265-.18-4l-20-30.11c-.7441059-1.1225967-2.0031934-1.7953628-3.35-1.79zm21.74 35c-.3474662.6323878-1.0186692 1.0181367-1.74 1h-40c-.73197046.0295991-1.4175988-.3577615-1.77-1-.35900599-.6292516-.31998367-1.4096979.1-2l20-30.08c.3692411-.5659193.9992755-.9071254 1.675-.9071254s1.3057589.3412061 1.675.9071254l20 30.1c.4038801.5919985.4272932 1.3646326.06 1.98z"/><path id="Shape" d="m26 30c0 1.73 2.54 9.72 3.05 11.31.1348836.4103745.5180268.6877501.95.6877501s.8151164-.2773756.95-.6877501c.51-1.59 3.05-9.58 3.05-11.31 0-2.209139-1.790861-4-4-4s-4 1.790861-4 4zm6 0c-.489125 2.5931443-1.1573929 5.1492693-2 7.65-.8426071-2.5007307-1.510875-5.0568557-2-7.65 0-1.1045695.8954305-2 2-2s2 .8954305 2 2z"/><path id="Shape" d="m30 44c-2.209139 0-4 1.790861-4 4s1.790861 4 4 4 4-1.790861 4-4-1.790861-4-4-4zm0 6c-1.1045695 0-2-.8954305-2-2s.8954305-2 2-2 2 .8954305 2 2-.8954305 2-2 2z"/></g></g></g></svg>