<svg height="512" viewBox="0 0 60 60" width="512" xmlns="http://www.w3.org/2000/svg"><g id="Page-1" fill="none" fill-rule="evenodd"><g id="039---Cloud-Refresh" fill-rule="nonzero"><path id="Shape" d="m13 37h-1c-6.07513225 0-11-4.9248678-11-11s4.92486775-11 11-11c.623565-.0030798 1.2461215.0504735 1.86.16 1.427149-3.0326141 4.4212431-5.02097 7.77-5.16 1.9678376-6.08875505 8.0738821-9.84005753 14.3946544-8.84348326s10.976386 6.4446301 10.9753456 12.84348326c.019924.3497165.019924.7002835 0 1.05.34 0 .7-.05 1-.05 6.0751322.0000001 10.9999998 4.9248678 10.9999998 11s-4.9248676 10.9999999-10.9999998 11z" fill="#E6F4F2"/><path id="Shape" d="m48 15c-.35 0-.71 0-1 .05.019924-.3497165.019924-.7002835 0-1.05 0-3.4478144-1.3696389-6.75441524-3.8076118-9.19238816-2.437973-2.43797292-5.7445738-3.80761184-9.1923882-3.80761184-.49788.00446883-.9952019.0345084-1.49.09 6.5501491.76600988 11.4889823 6.31521239 11.49 12.91.019924.3497165.019924.7002835 0 1.05.34 0 .7-.05 1-.05 5.6723409.0182317 10.4006953 4.3467764 10.9186843 9.9954462s-3.3442621 10.7649821-8.9186843 11.8145538v.19h1c6.0751322 0 11-4.9248678 11-11s-4.9248678-11-11-11z" fill="#cad9fc"/><path id="Shape" d="m40.83 9.15c-.2923118.00001923-.5699973-.12786225-.76-.35-1.5177498-1.77444941-3.7349995-2.79723347-6.07-2.8-.5522847 0-1-.44771525-1-1s.4477153-1 1-1c2.9180174.00022682 5.6903707 1.27499794 7.59 3.49.1724034.201559.2576705.46335301.2370412.72778336-.0206293.26443034-.145465.50983336-.3470412.68221664-.179713.15852397-.4103774.24724105-.65.25z" fill="#fff"/><circle id="Oval" cx="30" cy="40" fill="#E6F4F2" r="19"/><path id="Shape" d="m30 21c-.51 0-1 0-1.5.08 9.777224.9000644 17.2582767 9.1014346 17.2582767 18.92s-7.4810527 18.0199356-17.2582767 18.92c.5 0 1 .08 1.5.08 10.4934102 0 19-8.5065898 19-19s-8.5065898-19-19-19z" fill="#a4c2f7"/><path id="Shape" d="m10.92 36.21c-4.62124775-1.8469683-7.42676908-6.5665751-6.84121229-11.5086744.5855568-4.9420994 4.41630627-8.8754181 9.34121229-9.5913256-3.95600539-.4710186-7.85749868 1.2337904-10.19937152 4.4567501-2.34187285 3.2229596-2.75805474 7.460272-1.08799207 11.0772773 1.67006267 3.6170054 5.16531359 6.0483105 9.13736359 6.3559726" fill="#fff"/><path id="Shape" d="m3 18 1.5 1.33c-1.61650993 1.8454656-2.50526783 4.2166717-2.5 6.67h-2c-.01069462-2.9435792 1.0564383-5.789267 3-8z" fill="#fff"/><g fill="#61CFBF"><path id="Shape" d="m40.07 8.8c.1900027.22213775.4676882.35001923.76.35.2396226-.00275895.470287-.09147603.65-.25.2015762-.17238328.3264119-.4177863.3470412-.68221664.0206293-.26443035-.0646378-.52622436-.2370412-.72778336-1.8996293-2.21500206-4.6719826-3.48977318-7.59-3.49-.5522847 0-1 .44771525-1 1s.4477153 1 1 1c2.3350005.00276653 4.5522502 1.02555059 6.07 2.8z"/><path id="Shape" d="m1.73 23.07c.55228475 0 1-.4477153 1-1s-.44771525-1-1-1-1 .4477153-1 1 .44771525 1 1 1z"/><path id="Shape" d="m48 14c-.0137806-6.75848529-4.8538456-12.54228148-11.5040745-13.74717535s-13.2118426 2.51313692-15.5959255 8.83717535c-3.1853678.34613608-6.0079851 2.2080208-7.58 5-.4379481-.0548953-.8786538-.0849434-1.32-.09-3.4341585-.0159154-6.71057329 1.4402689-9 4-.18078673.2043618-.27021753.4737215-.2475585.7456299.02265904.2719084.15543998.5227504.3675585.6943701.42373445.3102558 1.01076492.2634635 1.38-.11 1.90846035-2.1318738 4.63872273-3.3441103 7.5-3.33 1.9730774-.0063323 3.9027673.5788444 5.54 1.68.1655373.1112428.3605573.1704453.56.17.3326261.0005011.6437296-.1644212.83-.44.1552856-.2214944.2142142-.4964502.1633396-.7621289-.0508747-.2656786-.207212-.4994133-.4333396-.6478711-1.0022971-.6732402-2.1016771-1.1892069-3.26-1.53 1.4344209-2.0914501 3.7755523-3.3788869 6.31-3.47h.29c1.7321407-.0073138 3.4186758.5548645 4.8 1.6.4418278.3313708 1.0686292.2418278 1.4-.2s.2418278-1.0686292-.2-1.4c-1.4368206-1.08209346-3.1410594-1.75272698-4.93-1.94 2.3315558-5.14486251 7.9354541-7.96718928 13.457282-6.77757612s9.466469 6.06906094 9.472718 11.71757612v.17c-1.6662638.2699658-3.2552963.893985-4.66 1.83-.4583963.3092795-.5792795.9316037-.27 1.39s.9316037.5792795 1.39.27c1.6394914-1.0940872 3.5690082-1.6722457 5.54-1.66 5.2032046.0191411 9.5222935 4.0251783 9.9321427 9.2122514.4098493 5.1870732-3.2265098 9.8216988-8.3621427 10.6577486-1.9502558-9.2526291-10.1140684-15.8750636-19.57-15.8750636s-17.6197442 6.6224345-19.57 15.8750636c-4.8535456-.7715744-8.42705803-4.9555089-8.43-9.87 0-.5522847-.44771525-1-1-1s-1 .4477153-1 1c.00089421 5.9009546 4.29191301 10.9255172 10.12 11.85-.0806118.7138219-.12067617 1.4316411-.12 2.15 0 11.045695 8.954305 20 20 20s20-8.954305 20-20c.0006762-.7183589-.0393882-1.4361781-.12-2.15 6.1791164-.9862565 10.5632125-6.555012 10.0714975-12.7929923-.491715-6.2379802-5.6941702-11.0510663-11.9514975-11.0570077zm-18 44c-9.9411255 0-18-8.0588745-18-18s8.0588745-18 18-18 18 8.0588745 18 18-8.0588745 18-18 18z"/><path id="Shape" d="m30 27c-7.1797017 0-13 5.8202983-13 13s5.8202983 13 13 13c3.4251005-.0794139 6.7286681-1.2848646 9.4-3.43.2135455-.1607946.353824-.4003934.3895223-.6653126s-.0361555-.5331032-.1995223-.7446874c-.1652201-.2089813-.4069976-.3433986-.6717023-.373436s-.5304531.0467883-.7382977.213436c-4.21 3.21-9 3.89-13.06 1.86-4.6961438-2.3164943-7.1083407-7.622316-5.7664964-12.6838737 1.3418443-5.0615576 6.0657136-8.4755723 11.2926829-8.1613996s9.5079004 4.2694308 10.2338135 9.4552733l-1.17-1.18c-.3921222-.3921222-1.0278778-.3921222-1.42 0s-.3921222 1.0278778 0 1.42l3 3c.1877666.1893127.4433625.2957983.71.2957983s.5222334-.1064856.71-.2957983l3-3c.3921222-.3921222.3921222-1.0278778 0-1.42s-1.0278778-.3921222-1.42 0l-1.36 1.37c-.6865554-6.6251334-6.2693881-11.6596137-12.93-11.66z"/></g></g></g></svg>