<svg height="512" viewBox="0 0 61 60" width="512" xmlns="http://www.w3.org/2000/svg" xmlns:xlink="http://www.w3.org/1999/xlink"><linearGradient id="linearGradient-1" x1="14.643%" x2="85.357%" y1="14.643%" y2="85.357%"><stop offset="0" stop-color="#d3dff2"/><stop offset=".17" stop-color="#d3dff2"/><stop offset=".2" stop-color="#d3dff2"/><stop offset=".2" stop-color="#dae2f2"/><stop offset=".2" stop-color="#ebeaf2"/><stop offset=".2" stop-color="#f6eff2"/><stop offset=".2" stop-color="#fdf2f2"/><stop offset=".2" stop-color="#fff3f2"/><stop offset=".25" stop-color="#fff3f2"/><stop offset=".26" stop-color="#fff3f2"/><stop offset=".26" stop-color="#d3dff2"/><stop offset=".4" stop-color="#d3dff2"/><stop offset=".42" stop-color="#d3dff2"/><stop offset=".42" stop-color="#dae2f2"/><stop offset=".42" stop-color="#ebeaf2"/><stop offset=".42" stop-color="#f6eff2"/><stop offset=".42" stop-color="#fdf2f2"/><stop offset=".42" stop-color="#fff3f2"/><stop offset=".49" stop-color="#fff3f2"/><stop offset=".5" stop-color="#fff3f2"/><stop offset=".5" stop-color="#f8f0f2"/><stop offset=".5" stop-color="#e7e8f2"/><stop offset=".5" stop-color="#dce3f2"/><stop offset=".5" stop-color="#d5e0f2"/><stop offset=".5" stop-color="#d3dff2"/><stop offset=".71" stop-color="#d3dff2"/><stop offset=".74" stop-color="#d3dff2"/><stop offset=".74" stop-color="#fff3f2"/><stop offset=".83" stop-color="#fff3f2"/><stop offset=".85" stop-color="#fff3f2"/><stop offset=".85" stop-color="#d3dff2"/></linearGradient><g id="Page-1" fill="none" fill-rule="evenodd"><g id="012---Cloud-Search" fill-rule="nonzero"><path id="Shape" d="m13 37h-1c-6.07513225 0-11-4.9248678-11-11s4.92486775-11 11-11c.623565-.0030798 1.2461215.0504735 1.86.16 1.427149-3.0326141 4.4212431-5.02097 7.77-5.16 1.9678376-6.08875505 8.0738821-9.84005753 14.3946544-8.84348326s10.976386 6.4446301 10.9753456 12.84348326c.019924.3497165.019924.7002835 0 1.05.34 0 .7-.05 1-.05 6.0751322.0000001 10.9999998 4.9248678 10.9999998 11s-4.9248676 10.9999999-10.9999998 11z" fill="#e8edfc"/><path id="Shape" d="m48 15c-.35 0-.71 0-1 .05.019924-.3497165.019924-.7002835 0-1.05 0-3.4478144-1.3696389-6.75441524-3.8076118-9.19238816-2.437973-2.43797292-5.7445738-3.80761184-9.1923882-3.80761184-.49788.00446883-.9952019.0345084-1.49.09 6.5501491.76600988 11.4889823 6.31521239 11.49 12.91.019924.3497165.019924.7002835 0 1.05.34 0 .7-.05 1-.05 5.6723409.0182317 10.4006953 4.3467764 10.9186843 9.9954462s-3.3442621 10.7649821-8.9186843 11.8145538v.19h1c6.0751322 0 11-4.9248678 11-11s-4.9248678-11-11-11z" fill="#cad9fc"/><path id="Shape" d="m40.83 9.15c-.2923118.00001923-.5699973-.12786225-.76-.35-1.5177498-1.77444941-3.7349995-2.79723347-6.07-2.8-.5522847 0-1-.44771525-1-1s.4477153-1 1-1c2.9180174.00022682 5.6903707 1.27499794 7.59 3.49.1724034.201559.2576705.46335301.2370412.72778336-.0206293.26443034-.145465.50983336-.3470412.68221664-.179713.15852397-.4103774.24724105-.65.25z" fill="#fff"/><path id="Shape" d="m48 37c.0051112 3.1099116-.8014652 6.1673185-2.34 8.87-.6569912 1.1662255-1.4454685 2.2533176-2.35 3.24-5.8350689 6.409084-15.4091285 7.7495937-22.7800384 3.1895418-7.37091-4.5600519-10.4453344-13.7256123-7.3151318-21.8080759 3.1302027-8.0824636 11.576056-12.7864136 20.0956409-11.1923432 8.5195849 1.5940703 14.6933422 9.0334456 14.6895293 17.7008773z" fill="#a4c2f7"/><path id="Shape" d="m30 19c-.5010266.0014471-1.0016617.0281476-1.5.08 6.1095003.515038 11.5366831 4.1044728 14.4017565 9.5250459 2.8650733 5.420573 2.7739694 11.9267283-.2417565 17.2649541-.6569912 1.1662255-1.4454685 2.2533176-2.35 3.24-3.0645694 3.376942-7.3036243 5.4553309-11.85 5.81.51 0 1 .08 1.54.08 5.0701244.0079806 9.9063415-2.1321636 13.31-5.89.9045315-.9866824 1.6930088-2.0737745 2.35-3.24 3.1555216-5.5720723 3.1131752-12.4010498-.1112058-17.9335604-3.2243809-5.5325106-9.1452557-8.9354459-15.5487942-8.9364396z" fill="#7facfa"/><circle id="Oval" cx="30" cy="37" fill="url(#linearGradient-1)" r="14"/><path id="Shape" d="m30 23c-.5010337.0011903-1.0016819.0278915-1.5.08 7.1126167.7636474 12.5054767 6.7665061 12.5054767 13.92s-5.39286 13.1563526-12.5054767 13.92c.4983181.0521085.9989663.0788097 1.5.08 7.7319865 0 14-6.2680135 14-14s-6.2680135-14-14-14z" fill="#a4c2f7"/><path id="Shape" d="m49.8 48.87-2.35 3.24-4.14-3c.9045315-.9866824 1.6930088-2.0737745 2.35-3.24z" fill="#e8edfc"/><path id="Shape" d="m45.66 45.87c-.29.51-.61 1-.95 1.48l2.09 1.52-1.32 1.81 2 1.43 2.35-3.24z" fill="#cad9fc"/><path id="Shape" d="m59 55c.005081.8445423-.2613475 1.6683673-.76 2.35-1.2965033 1.7843679-3.7927397 2.1825131-5.58.89l-4.76-3.34c-.8938499-.646698-1.0951999-1.8950682-.45-2.79l2.35-3.24c.646698-.8938499 1.8950682-1.0951999 2.79-.45l4.76 3.34c1.037435.7531814 1.6509943 1.9579888 1.65 3.24z" fill="#e8edfc"/><path id="Shape" d="m57.35 51.76-4.76-3.34c-.8152714-.5814581-1.9349079-.4703491-2.62.26l4.38 3.08c1.037435.7531814 1.6509943 1.9579888 1.65 3.24-.0016404 1.6245406-.9856587 3.0867364-2.49 3.7 1.868192.7342022 3.9912151-.0298971 4.9630293-1.7862489.9718143-1.7563518.4914187-3.9609594-1.1230293-5.1537511z" fill="#cad9fc"/><path id="Shape" d="m22 33c-.265803.0015368-.5212812-.1028135-.71-.29-.1893127-.1877666-.2957983-.4433625-.2957983-.71s.1064856-.5222334.2957983-.71l3-3c.2536586-.2536586.623374-.3527235.969878-.259878.3465041.0928454.6171546.3634959.71.71.0928455.346504-.0062194.7162194-.259878.969878l-3 3c-.1887188.1871865-.444197.2915368-.71.29z" fill="#fff"/><path id="Shape" d="m21 40c-.265803.0015368-.5212812-.1028135-.71-.29-.1893127-.1877666-.2957983-.4433625-.2957983-.71s.1064856-.5222334.2957983-.71l10-10c.3921222-.3921222 1.0278778-.3921222 1.42 0s.3921222 1.0278778 0 1.42l-10 10c-.1887188.1871865-.444197.2915368-.71.29z" fill="#fff"/><path id="Shape" d="m10.91 36.22c-4.6315186-1.8427916-7.44497735-6.5696634-6.85644179-11.5194585s4.43194274-8.8851589 9.36644179-9.5905415c-4.08946022-.5807539-8.15958716 1.1783862-10.53868571 4.5549007-2.37909855 3.3765144-2.66612908 7.8012314-.74320151 11.4568175s5.73166938 5.9258268 9.86188722 5.8782818" fill="#fff"/><path id="Shape" d="m3 18 1.5 1.33c-1.61650993 1.8454656-2.50526783 4.2166717-2.5 6.67h-2c-.01069462-2.9435792 1.0564383-5.789267 3-8z" fill="#fff"/><g fill="#428dff"><path id="Shape" d="m40.07 8.8c.1900027.22213775.4676882.35001923.76.35.2396226-.00275895.470287-.09147603.65-.25.2015762-.17238328.3264119-.4177863.3470412-.68221664.0206293-.26443035-.0646378-.52622436-.2370412-.72778336-1.8996293-2.21500206-4.6719826-3.48977318-7.59-3.49-.5522847 0-1 .44771525-1 1s.4477153 1 1 1c2.3350005.00276653 4.5522502 1.02555059 6.07 2.8z"/><path id="Shape" d="m1.73 23.07c.55228475 0 1-.4477153 1-1s-.44771525-1-1-1-1 .4477153-1 1 .44771525 1 1 1z"/><path id="Shape" d="m48 14c-.0137806-6.75848529-4.8538456-12.54228148-11.5040745-13.74717535s-13.2118426 2.51313692-15.5959255 8.83717535c-3.1853678.34613608-6.0079851 2.2080208-7.58 5-.4379481-.0548953-.8786538-.0849434-1.32-.09-3.4341585-.0159154-6.71057329 1.4402689-9 4-.18078673.2043618-.27021753.4737215-.2475585.7456299.02265904.2719084.15543998.5227504.3675585.6943701.42373445.3102558 1.01076492.2634635 1.38-.11 1.90846035-2.1318738 4.63872273-3.3441103 7.5-3.33 1.9730774-.0063323 3.9027673.5788444 5.54 1.68.1655373.1112428.3605573.1704453.56.17.3326261.0005011.6437296-.1644212.83-.44.1552856-.2214944.2142142-.4964502.1633396-.7621289-.0508747-.2656786-.207212-.4994133-.4333396-.6478711-1.0022971-.6732402-2.1016771-1.1892069-3.26-1.53 1.4344209-2.0914501 3.7755523-3.3788869 6.31-3.47h.29c1.7321407-.0073138 3.4186758.5548645 4.8 1.6.4418278.3313708 1.0686292.2418278 1.4-.2s.2418278-1.0686292-.2-1.4c-1.4368206-1.08209346-3.1410594-1.75272698-4.93-1.94 2.3315558-5.14486251 7.9354541-7.96718928 13.457282-6.77757612s9.466469 6.06906094 9.472718 11.71757612v.17c-1.6662638.2699658-3.2552963.893985-4.66 1.83-.4583963.3092795-.5792795.9316037-.27 1.39s.9316037.5792795 1.39.27c1.6394914-1.0940872 3.5690082-1.6722457 5.54-1.66 5.5228474-.2761423 10.2238575 3.9771526 10.4999999 9.5.2761423 5.5228474-3.9771525 10.2238575-9.4999999 10.5-.7220226-9.9327412-8.991051-17.6225023-18.95-17.6225023s-18.2279774 7.6897611-18.95 17.6225023c-5.16863754-.4670298-9.12105714-4.810348-9.1-10 0-.5522847-.44771525-1-1-1s-1 .4477153-1 1c-.01968761 6.2734757 4.79618107 11.5033783 11.05 12 .4068275 7.4792881 5.1699292 14.0215913 12.1627332 16.7059814 6.992804 2.6843902 14.9101772 1.0098542 20.2172668-4.2759814l2.78 2c-.3598883 1.2202134.0889722 2.5347336 1.12 3.28l4.74 3.33c1.4480946 1.0608213 3.353729 1.2639635 4.9929094.5322484 1.6391805-.7317152 2.7603232-2.285983 2.9374804-4.0723019.1771573-1.7863188-.6168612-3.5305218-2.0803898-4.5699465l-4.74-3.33c-.6322052-.4484462-1.4134433-.6347966-2.18-.52-.4394682.071474-.8567719.2425001-1.22.5l-2.79-2c1.1965083-2.3568542 1.8814712-4.939948 2.01-7.58 6.627417-.2761424 11.7761424-5.872583 11.5-12.5s-5.872583-11.7761424-12.5-11.5zm4 35.24 4.74 3.33c.6445683.4667114 1.0772931 1.1704003 1.2029479 1.9562112.1256547.7858109-.0660575 1.5893501-.5329479 2.2337888-.4726999.6586441-1.1963964 1.092862-2 1.2-.7920347.1281155-1.6023846-.0663684-2.25-.54l-4.74-3.33c-.4454556-.321502-.5481521-.9421456-.23-1.39l2.35-3.24c.1564448-.2332621.4037736-.38998.6815051-.4318299.2777314-.0418499.5602594.0350264.7784949.2118299zm-3.62-.15-1.17 1.62-2.46-1.78c.42-.52.8-1.06 1.17-1.62zm-18.38 4.91c-9.3888407 0-17-7.6111593-17-17s7.6111593-17 17-17 17 7.6111593 17 17c0 4.5086803-1.7910663 8.8326968-4.9791847 12.0208153-3.1881185 3.1881184-7.512135 4.9791847-12.0208153 4.9791847z"/><path id="Shape" d="m30 22c-8.2842712 0-15 6.7157288-15 15s6.7157288 15 15 15 15-6.7157288 15-15c0-3.9782473-1.5803526-7.793556-4.3933983-10.6066017s-6.6283544-4.3933983-10.6066017-4.3933983zm0 28c-7.1797017 0-13-5.8202983-13-13s5.8202983-13 13-13 13 5.8202983 13 13-5.8202983 13-13 13z"/><path id="Shape" d="m22 33c.265803.0015368.5212812-.1028135.71-.29l3-3c.2536586-.2536586.3527235-.623374.259878-.969878-.0928454-.3465041-.3634959-.6171546-.71-.71-.346504-.0928455-.7162194.0062194-.969878.259878l-3 3c-.1893127.1877666-.2957983.4433625-.2957983.71s.1064856.5222334.2957983.71c.1887188.1871865.444197.2915368.71.29z"/><path id="Shape" d="m30.29 28.29-10 10c-.1893127.1877666-.2957983.4433625-.2957983.71s.1064856.5222334.2957983.71c.1877666.1893127.4433625.2957983.71.2957983s.5222334-.1064856.71-.2957983l10-10c.3921222-.3921222.3921222-1.0278778 0-1.42s-1.0278778-.3921222-1.42 0z"/></g></g></g></svg>