<svg width="450" height="349" viewBox="0 0 450 349" fill="none" xmlns="http://www.w3.org/2000/svg">
<path opacity="0.5" d="M449.995 293.955C449.815 314.725 442.342 338.189 421.279 348H34.1341C26.7404 340.804 21.502 331.871 17.2613 322.909C10.1816 308.001 5.21138 292.179 2.49397 275.9C-1.40741 252.395 -0.369702 228.452 3.1126 204.898C6.26564 183.489 11.5839 161.931 23.6871 143.018C34.7327 125.711 51.1964 111.079 70.2043 99.941C86.5782 90.2997 105.866 82.974 125.712 84.0419C144.46 85.0998 161.632 93.6532 175.911 104.073C190.189 114.493 202.292 126.939 216.062 137.867C243.511 159.655 277.666 175.215 314.145 182.581C341.814 188.16 371.429 189.328 396.144 201.314C433.013 219.16 450.334 257.795 449.995 293.955Z" fill="#61CFBF"/>
<path opacity="0.5" d="M399.646 166.113C395.156 169.836 392.752 176.742 395.875 181.673C398.998 186.603 405.603 187.431 410.193 190.885C413.336 193.25 415.412 196.753 418.116 199.608C420.82 202.462 424.761 204.798 428.552 203.73C430.747 202.975 432.638 201.529 433.941 199.608C436.505 196.145 438.091 192.056 438.531 187.77C438.972 183.483 438.251 179.157 436.445 175.245C429.949 161.791 411.36 156.382 399.646 166.113Z" fill="#61CFBF"/>
<path opacity="0.5" d="M382.055 146.151C377.206 143.866 371.079 146.93 368.615 151.691C367.786 153.215 367.33 154.915 367.285 156.65C367.24 158.385 367.607 160.106 368.356 161.671C369.982 164.715 373.774 166.662 377.066 165.594C379.68 164.765 381.496 162.41 383.891 161.063C385.617 160.064 387.643 159.655 389.219 158.458C390.468 157.514 391.347 156.163 391.704 154.639C392.06 153.115 391.872 151.514 391.171 150.114C390.47 148.714 389.301 147.605 387.868 146.977C386.434 146.35 384.826 146.245 383.322 146.68" fill="#61CFBF"/>
<path d="M300.316 47.9518C294.02 50.946 288.682 56.3755 286.606 63.0526C285.608 66.2064 285.379 69.5899 283.982 72.5841C281.767 77.3149 276.997 80.359 274.154 84.7205C272.315 87.6038 271.319 90.9442 271.278 94.364C271.238 97.7839 272.154 101.147 273.924 104.073C275.079 105.598 276.082 107.233 276.918 108.954C278.344 112.676 276.868 116.788 275.68 120.591C274.493 124.394 273.685 128.895 276.089 132.059C278.374 135.053 282.625 135.622 286.387 135.552C290.148 135.482 294.179 135.103 297.452 136.969C299.069 137.877 300.366 139.285 302.012 140.133C305.005 141.64 308.508 141.131 311.781 140.582C314.724 140.083 317.997 139.395 319.673 136.919C320.513 135.438 320.995 133.78 321.08 132.079C322.569 120.103 323.173 108.033 322.886 95.9687C322.716 88.7228 322.217 81.4868 322.507 74.2608C322.856 65.6076 325.341 54.8684 322.217 46.4947C320.751 42.5024 317.777 44.1891 313.726 44.4985C309.08 44.8022 304.531 45.9735 300.316 47.9518Z" fill="#7F4A52"/>
<path d="M335.678 44.0294C341.235 45.776 346.025 49.2693 350.695 52.6926C354.326 55.3574 358.158 58.3117 359.465 62.5535C360.353 65.4379 359.954 68.6217 361.161 71.3864C363.057 75.7579 368.206 77.6941 371.558 81.1275C373.399 83.0503 374.677 85.4423 375.25 88.0422C375.824 90.642 375.672 93.3496 374.811 95.8689C373.534 99.4619 370.82 102.456 369.702 106.099C368.375 110.391 369.363 114.992 369.702 119.463C370.042 123.934 369.413 129.005 365.861 131.839C361.461 135.342 354.805 133.835 349.567 135.921C347.053 136.919 344.867 138.796 342.183 139.185C338.821 139.674 335.578 137.758 332.205 137.548C330.999 137.609 329.79 137.501 328.613 137.229C327.258 136.635 326.145 135.596 325.46 134.284C322.178 128.925 321.848 122.308 322.597 116.1C323.345 109.892 325.081 103.833 325.59 97.6055C326.588 85 322.686 72.7337 321.06 60.3378C320.561 56.5352 318.795 49.1794 321.2 45.6662C323.934 41.6041 331.736 42.7918 335.678 44.0294Z" fill="#7F4A52"/>
<path d="M317.069 124.244C317.388 124.244 318.615 131.23 318.915 137.219C319.324 145.353 317.528 147.678 315.213 155.533C315.213 155.533 319.743 162.939 326.318 162.739C332.894 162.54 337.224 154.755 337.224 154.755C334.883 149.857 333.553 144.538 333.313 139.115C332.834 128.625 334.141 124.304 334.141 124.304L317.069 124.244Z" fill="#FDBAB1"/>
<path d="M317.069 124.244C317.388 124.244 318.615 131.23 318.915 137.219C319.324 145.353 317.528 147.678 315.213 155.533C315.213 155.533 319.633 170.305 326.189 170.105C332.744 169.905 337.164 154.715 337.164 154.715C334.823 149.817 333.493 144.498 333.253 139.075C332.774 128.585 334.081 124.264 334.081 124.264L317.069 124.244Z" fill="#FECFB1"/>
<path d="M317.448 125.432C317.448 125.432 317.877 131.18 325.051 131.959C332.225 132.737 334.141 124.244 334.141 124.244H317.069L317.448 125.432Z" fill="#FF7E7E"/>
<path d="M368.635 98.0947C367.208 108.025 356.093 109.622 355.254 109.722C352.253 114.86 347.958 119.121 342.798 122.083C337.639 125.044 331.793 126.603 325.844 126.603C319.896 126.603 314.05 125.044 308.891 122.083C303.731 119.121 299.436 114.86 296.434 109.722C295.945 109.722 284.461 108.445 282.765 98.3641C281.068 88.094 291.066 88.633 291.066 88.633L291.845 91.6272C292.06 82.8897 295.628 74.5699 301.809 68.3919C307.989 62.2139 316.31 58.6513 325.045 58.4421C333.78 58.233 342.261 61.3934 348.73 67.2685C355.2 73.1437 359.161 81.2831 359.794 90.0004L360.134 88.5332C360.134 88.5332 370.082 87.8246 368.635 98.0947Z" fill="#FDBAB1"/>
<path d="M368.635 98.0946C367.208 108.025 356.093 109.622 355.254 109.722C352.253 114.859 347.958 119.121 342.798 122.083C337.639 125.044 331.793 126.602 325.844 126.602C319.896 126.602 314.05 125.044 308.891 122.083C303.731 119.121 299.436 114.859 296.434 109.722C295.945 109.722 284.461 108.445 282.765 98.3641C281.068 88.094 291.066 88.6329 291.066 88.6329L291.845 91.6271C292.086 82.7634 295.776 74.3437 302.128 68.1592C308.481 61.9746 316.995 58.5133 325.859 58.5114C343.82 58.5114 357.789 71.067 359.086 88.6629L360.084 88.5331C360.084 88.5331 370.082 87.8245 368.635 98.0946Z" fill="#FDBAB1"/>
<path d="M338.891 95.859C340.72 95.859 342.203 94.3754 342.203 92.5454C342.203 90.7153 340.72 89.2318 338.891 89.2318C337.061 89.2318 335.578 90.7153 335.578 92.5454C335.578 94.3754 337.061 95.859 338.891 95.859Z" fill="#7F4A52"/>
<path d="M311.142 96.6474C312.971 96.6474 314.455 95.1639 314.455 93.3338C314.455 91.5038 312.971 90.0203 311.142 90.0203C309.312 90.0203 307.829 91.5038 307.829 93.3338C307.829 95.1639 309.312 96.6474 311.142 96.6474Z" fill="#7F4A52"/>
<path d="M323.235 105.091L324.902 105.949C325.203 106.097 325.534 106.174 325.869 106.174C326.205 106.174 326.536 106.097 326.837 105.949L328.563 105.161C329.099 104.897 329.523 104.45 329.757 103.901C329.992 103.351 330.021 102.736 329.841 102.167L327.077 92.5853C327.016 92.378 326.89 92.1959 326.718 92.0663C326.545 91.9367 326.335 91.8667 326.119 91.8667C325.903 91.8667 325.693 91.9367 325.52 92.0663C325.347 92.1959 325.221 92.378 325.161 92.5853L322.257 102.566C322.087 103.034 322.092 103.548 322.272 104.012C322.452 104.477 322.794 104.86 323.235 105.091Z" fill="#FE988C"/>
<path d="M307.091 84.1418C308.903 83.9987 310.724 84.0355 312.529 84.2516C313.014 84.3352 313.512 84.2544 313.946 84.022C314.143 83.8663 314.293 83.6587 314.38 83.4226C314.466 83.1864 314.485 82.9309 314.435 82.6846C314.332 82.188 314.069 81.739 313.686 81.4071C312.823 80.6514 311.72 80.227 310.573 80.2094C309.438 80.1978 308.309 80.3732 307.231 80.7284C305.793 81.0745 304.459 81.7589 303.339 82.7245C302.651 83.3832 301.044 85.7886 302.531 86.1179C303.229 86.2377 306.013 84.2815 307.091 84.1418Z" fill="#7F4A52"/>
<path d="M341.615 83.922C339.803 84.0765 338.012 84.4108 336.266 84.9201C335.804 85.0798 335.302 85.0798 334.84 84.9201C334.617 84.8003 334.432 84.6212 334.306 84.4028C334.179 84.1843 334.115 83.935 334.121 83.6825C334.144 83.177 334.325 82.6915 334.64 82.2952C335.359 81.4039 336.37 80.7958 337.494 80.5785C338.614 80.3756 339.759 80.3521 340.886 80.5086C342.359 80.6133 343.786 81.0684 345.047 81.8361C345.845 82.365 347.851 84.451 346.444 85.0398C345.805 85.3093 342.702 83.8322 341.615 83.922Z" fill="#7F4A52"/>
<path d="M340.876 107.556C339.363 109.122 337.519 110.33 335.478 111.09C335.345 111.484 335.138 111.85 334.87 112.167C333.75 113.431 332.252 114.3 330.599 114.643C328.942 114.978 327.249 115.106 325.56 115.022C324.583 115.047 323.607 114.947 322.657 114.722C321.707 114.527 320.792 114.191 319.942 113.724C318.84 113.126 317.803 112.414 316.849 111.599C315.054 111.111 313.363 110.299 311.86 109.203C312.609 109.323 315.772 110.83 317.039 110.99C318.483 111.262 319.969 111.208 321.389 110.83C322.886 110.371 325.241 109.473 326.378 110.571C327.865 109.333 330.888 110.171 333.363 110.221C336.087 110.153 338.718 109.219 340.876 107.556Z" fill="#FF7373"/>
<path d="M360.104 92.4556C360.915 92.0249 361.847 91.8784 362.751 92.0393C363.656 92.2003 364.48 92.6596 365.093 93.3438C365.679 94.0356 366.1 94.8514 366.324 95.7297C366.549 96.6079 366.571 97.5258 366.39 98.414C365.958 100.568 364.737 102.483 362.967 103.784C361.208 105.067 359.145 105.869 356.981 106.109" stroke="#FF7E7E" stroke-width="0.56" stroke-linecap="round" stroke-linejoin="round"/>
<path d="M366.44 96.6074C366.44 96.6074 361.022 96.5076 359.745 100.19C358.467 103.873 359.156 105.64 359.156 105.64" stroke="#FF7E7E" stroke-width="0.56" stroke-linecap="round" stroke-linejoin="round"/>
<path d="M291.086 92.4555C290.28 92.039 289.359 91.9003 288.466 92.0609C287.573 92.2215 286.758 92.6725 286.147 93.3438C285.561 94.0356 285.14 94.8513 284.916 95.7296C284.691 96.6079 284.668 97.5257 284.85 98.414C285.274 100.571 286.492 102.491 288.262 103.794C290.02 105.08 292.084 105.882 294.249 106.119" stroke="#FF7E7E" stroke-width="0.56" stroke-linecap="round" stroke-linejoin="round"/>
<path d="M284.77 96.6074C284.77 96.6074 290.188 96.5076 291.465 100.19C292.743 103.873 292.054 105.64 292.054 105.64" stroke="#FF7E7E" stroke-width="0.56" stroke-linecap="round" stroke-linejoin="round"/>
<path d="M291.835 91.6272C291.835 91.6272 314.924 76.5564 321.409 59.5394C321.409 59.5394 337.095 78.9118 356.921 88.7428C360.263 90.3996 360.124 88.134 360.124 88.134C360.124 88.134 354.736 48.9 323.564 50.6766C290.707 52.533 291.835 91.6272 291.835 91.6272Z" fill="#7F4A52"/>
<path d="M292.254 91.0383C292.254 91.0383 291.874 99.5917 294.299 104.223V89.0721L292.254 91.0383Z" fill="#7F4A52"/>
<path d="M360.104 88.3635C360.104 88.3635 359.515 97.416 356.582 102.037L358.278 86.068L360.104 88.3635Z" fill="#7F4A52"/>
<path d="M315.203 154.954C315.203 154.954 318.586 164.606 326.249 164.586C333.912 164.566 337.224 154.126 337.224 154.126L326.249 207.273L315.203 154.954Z" fill="#FF7E7E"/>
<path d="M293.182 56.136C292.852 60.1282 287.943 63.1224 285.868 66.4859C283.274 70.7377 279.372 74.3606 278.165 79.2013C276.878 84.3912 278.993 89.9005 278.075 95.1703C277.257 99.9211 274.014 104.303 274.603 109.093C274.963 110.94 275.518 112.743 276.259 114.473C277.239 117.254 277.784 120.169 277.875 123.116C277.975 126.4 277.636 130.103 279.801 132.558C283.204 136.44 289.679 134.284 294.469 136.191C296.554 137.029 298.26 138.646 300.346 139.514C304.716 141.321 309.675 139.514 314.055 137.738" stroke="#7F4A52" stroke-miterlimit="10"/>
<path d="M356.592 59.749C357.767 60.6942 358.722 61.8834 359.392 63.2345C360.063 64.5856 360.431 66.0662 360.473 67.5738C360.752 71.5661 367.627 75.1492 370.73 80.8082C373.724 86.2476 371.449 93.0644 372.586 99.1626C373.05 100.899 373.364 102.672 373.524 104.462C373.524 108.724 370.271 112.277 369.353 116.439C368.765 119.104 369.164 121.899 368.795 124.613C368.425 127.328 366.879 130.222 364.195 130.771" stroke="#7F4A52" stroke-miterlimit="10"/>
<path d="M321.19 58.1122C319.59 65.3697 316.124 72.0838 311.135 77.5907C306.146 83.0976 299.806 87.2066 292.743 89.5113" stroke="#7F4A52" stroke-miterlimit="10"/>
<path d="M323.255 58.8806C323.614 62.2641 325.75 65.2083 328.194 67.5837C330.639 69.9591 333.453 71.9553 335.728 74.4903C337.574 76.4865 339.04 78.9118 340.996 80.848C343.11 82.7725 345.457 84.4255 347.981 85.7685C349.778 86.9382 351.729 87.8519 353.778 88.4832C354.806 88.7915 355.887 88.8824 356.952 88.7501C358.017 88.6178 359.043 88.2652 359.964 87.7147" stroke="#7F4A52" stroke-miterlimit="10"/>
<path d="M315.213 155.513L288.512 174.696L296.714 239.9L278.524 348H383.732L358.028 238.363L364.564 173.399L337.224 154.695L326.219 204.059L315.213 155.513Z" fill="white" stroke="#61CFBF" stroke-width="0.5" stroke-linecap="round" stroke-linejoin="round"/>
<path d="M315.213 155.513L301.912 174.706L311.142 183.629L304.806 195.216L326.378 226.855L346.663 195.216L340.527 184.237L349.387 173.349L338.422 155.513" stroke="#61CFBF" stroke-width="0.5" stroke-linecap="round" stroke-linejoin="round"/>
<path d="M326.298 251.757L329.94 344.367" stroke="#61CFBF" stroke-width="0.5" stroke-linecap="round" stroke-linejoin="round"/>
<path d="M316.131 198.799L315.612 228.073L313.227 268.894L353.548 268.584L356.831 198.59L316.131 198.799Z" fill="#FF7E7E"/>
<path d="M319.553 201.724L318.805 227.833L316.38 264.262L350.186 263.564L353.678 201.105L319.553 201.724Z" fill="white"/>
<path d="M329.471 199.089C330.487 198.758 331.547 198.586 332.614 198.58C332.773 198.567 332.923 198.504 333.044 198.4C333.181 198.187 333.238 197.932 333.203 197.681C333.21 196.722 333.547 195.794 334.157 195.054C334.768 194.314 335.615 193.808 336.556 193.619C337.038 193.596 337.52 193.672 337.971 193.844C338.422 194.016 338.832 194.279 339.176 194.618C339.52 194.957 339.79 195.363 339.97 195.811C340.149 196.259 340.233 196.74 340.218 197.222C340.188 197.403 340.205 197.589 340.268 197.761C340.312 197.832 340.37 197.893 340.439 197.941C340.507 197.989 340.585 198.023 340.667 198.041C341.944 198.45 343.47 197.841 344.548 198.709C345.626 199.578 345.616 201.205 345.456 202.602L332.106 202.682C331.198 202.682 328.992 202.971 328.344 202.103C327.695 201.235 328.663 199.488 329.471 199.089Z" fill="#87D1C6"/>
<path d="M322.048 208.201H350.066" stroke="#61CFBF" stroke-linecap="round" stroke-linejoin="round"/>
<path d="M322.048 212.253H350.066" stroke="#61CFBF" stroke-linecap="round" stroke-linejoin="round"/>
<path d="M322.048 216.305H350.066" stroke="#61CFBF" stroke-linecap="round" stroke-linejoin="round"/>
<path d="M322.048 220.358H350.066" stroke="#61CFBF" stroke-linecap="round" stroke-linejoin="round"/>
<path d="M322.048 224.42H350.066" stroke="#61CFBF" stroke-linecap="round" stroke-linejoin="round"/>
<path d="M322.048 228.472H350.066" stroke="#61CFBF" stroke-linecap="round" stroke-linejoin="round"/>
<path d="M322.048 232.524H350.066" stroke="#1995F5" stroke-linecap="round" stroke-linejoin="round"/>
<path d="M322.048 236.576H350.066" stroke="#61CFBF" stroke-linecap="round" stroke-linejoin="round"/>
<path d="M321.36 244.23V241.557H348.897V244.23H321.36Z" fill="#61CFBF" stroke="#61CFBF"/>
<path d="M328.174 253.813C328.164 254.4 327.982 254.972 327.649 255.457C327.316 255.942 326.848 256.318 326.304 256.538C325.759 256.758 325.161 256.814 324.585 256.696C324.009 256.579 323.48 256.295 323.065 255.879C322.649 255.464 322.365 254.935 322.248 254.359C322.131 253.783 322.186 253.185 322.406 252.64C322.627 252.095 323.003 251.627 323.487 251.294C323.972 250.961 324.543 250.778 325.131 250.768C325.533 250.762 325.931 250.836 326.304 250.986C326.676 251.137 327.014 251.361 327.298 251.645C327.582 251.929 327.806 252.267 327.956 252.64C328.107 253.012 328.181 253.411 328.174 253.813Z" fill="#61CFBF"/>
<path d="M347.352 253.813C347.342 254.403 347.158 254.977 346.823 255.462C346.489 255.948 346.018 256.324 345.47 256.543C344.922 256.762 344.322 256.814 343.745 256.693C343.167 256.572 342.639 256.283 342.225 255.862C341.811 255.442 341.531 254.908 341.42 254.329C341.308 253.749 341.37 253.15 341.598 252.606C341.826 252.061 342.21 251.597 342.701 251.27C343.192 250.943 343.769 250.769 344.359 250.769C344.756 250.768 345.149 250.848 345.516 251.001C345.882 251.155 346.214 251.38 346.493 251.663C346.772 251.946 346.991 252.282 347.139 252.651C347.286 253.021 347.359 253.415 347.352 253.813Z" fill="#61CFBF"/>
<path d="M337.154 221.825C337.903 220.657 338.462 219.37 339.15 218.172C340.976 215.088 343.73 212.672 346.434 210.317C346.542 210.213 346.671 210.135 346.813 210.088C346.963 210.076 347.112 210.11 347.242 210.185C347.372 210.26 347.476 210.372 347.542 210.507C348.15 211.505 347.761 212.742 347.312 213.8C346.389 215.946 345.256 217.995 343.929 219.918L356.252 211.245C356.562 211.026 356.452 211.096 356.811 211.245C357.08 211.515 357.251 211.866 357.3 212.243C357.495 212.925 357.523 213.645 357.381 214.34C357.238 215.035 356.93 215.685 356.482 216.236C357.145 217.126 357.508 218.204 357.519 219.315C357.53 220.425 357.187 221.51 356.542 222.414C356.991 223.041 357.208 223.806 357.155 224.577C357.103 225.347 356.783 226.075 356.252 226.635C356.543 227.184 356.699 227.795 356.708 228.416C356.716 229.037 356.577 229.652 356.302 230.208C355.636 231.308 354.68 232.203 353.538 232.793C352.778 233.288 351.969 233.703 351.124 234.031C348.972 234.677 346.712 234.887 344.478 234.65C344.206 234.643 343.935 234.607 343.67 234.54C343.394 234.441 343.133 234.307 342.892 234.141C341.595 233.354 340.345 232.491 339.15 231.556C337.884 230.318 336.454 229.26 334.899 228.412C333.293 227.713 331.587 227.035 333.602 225.567C335.012 224.555 336.217 223.285 337.154 221.825Z" fill="#FDBAB1"/>
<path d="M345.825 236.167C345.825 236.167 307.45 269.243 294.299 271.229V271.309C244.19 281.629 288.522 174.706 288.522 174.706L292.054 202.792L296.534 238.373V238.672C309.456 234.4 326.817 227.394 333.732 225.068L345.825 236.167Z" fill="white" stroke="#61CFBF" stroke-width="0.5" stroke-linecap="round" stroke-linejoin="round"/>
<path d="M286.267 248.223C286.967 246.273 288.132 244.523 289.659 243.123C291.475 241.087 293.749 239.513 296.295 238.532C293.226 241.901 291.402 246.219 291.126 250.768" stroke="#61CFBF" stroke-width="0.5" stroke-linecap="round" stroke-linejoin="round"/>
<path d="M364.564 173.399C364.564 173.399 380.529 221.485 382.255 242.165C383.981 262.845 373.404 288.076 373.404 288.076L366.42 301.74L353.718 272.007L356.432 247.335L357.26 239.83L364.564 173.399Z" fill="white" stroke="#61CFBF" stroke-width="0.5" stroke-linecap="round" stroke-linejoin="round"/>
<path d="M370.541 242.984C369.772 242.714 358.397 243.263 356.572 249.232L370.541 242.984Z" fill="white"/>
<path d="M370.541 242.984C369.772 242.714 358.397 243.263 356.572 249.232" stroke="#61CFBF" stroke-width="0.5" stroke-linecap="round" stroke-linejoin="round"/>
<path d="M352.032 269.702L368.076 305.822" stroke="#61CFBF" stroke-width="0.5" stroke-linecap="round" stroke-linejoin="round"/>
<path d="M356.212 287.188C358.322 295.974 361.793 304.376 366.5 312.09" stroke="#61CFBF" stroke-width="0.5" stroke-linecap="round" stroke-linejoin="round"/>
<path d="M357.619 301.111C358.305 304.842 360.177 308.251 362.957 310.832" stroke="#61CFBF" stroke-width="0.5" stroke-linecap="round" stroke-linejoin="round"/>
<path d="M155.286 153.497H153.43C153.021 147.309 152.862 141.081 152.951 134.873C152.802 138.985 152.572 143.087 152.233 147.179C152.083 148.926 151.405 151.441 151.375 153.497H81.8187C79.404 143.586 79.7532 133.217 80.1224 122.996C79.9029 128.925 78.8951 134.873 78.6457 140.832C78.526 143.926 78.4461 147.02 78.3863 150.104C78.3863 151.501 78.1668 152.639 78.2067 153.497H69.7454C69.7454 153.497 70.384 73.2428 77.3087 52.2935C84.2333 31.3441 110.525 33.2404 110.525 33.2404C110.525 33.2404 134.293 27.9507 146.216 41.6641C160.994 58.6412 155.286 153.497 155.286 153.497Z" fill="#7F4A52"/>
<path d="M105.905 112.137C106.255 112.137 107.552 119.593 107.901 125.911C108.34 134.554 106.424 137.029 103.97 145.373C103.97 145.373 108.779 153.238 115.774 153.018C122.768 152.798 127.358 144.495 127.358 144.495C124.869 139.291 123.454 133.639 123.197 127.877C122.698 116.738 124.075 112.137 124.075 112.137H105.905Z" fill="#FDBAB1"/>
<path d="M105.905 112.137C106.255 112.137 107.552 119.593 107.901 125.911C108.34 134.554 106.424 137.029 103.97 145.373C103.97 145.373 108.669 161.072 115.664 160.853C122.658 160.633 127.358 144.495 127.358 144.495C124.869 139.291 123.454 133.639 123.197 127.877C122.698 116.738 124.075 112.137 124.075 112.137H105.905Z" fill="#FECFB1"/>
<path d="M106.314 113.395C106.314 113.395 106.764 119.513 114.397 120.331C122.03 121.15 124.045 112.137 124.045 112.137H105.905L106.314 113.395Z" fill="#FF7E7E"/>
<path d="M160.704 84.3513C159.198 94.9108 147.374 96.5975 146.486 96.7073C143.293 102.166 138.727 106.692 133.241 109.836C127.756 112.98 121.543 114.631 115.221 114.626C108.898 114.621 102.688 112.96 97.2075 109.807C91.727 106.654 87.1678 102.121 83.9839 96.6574C83.465 96.6574 71.2221 95.3 69.456 84.5908C67.64 73.672 78.2665 74.2509 78.2665 74.2509L79.0847 77.4846C79.3218 68.2051 83.1164 59.372 89.6833 52.8133C96.2501 46.2545 105.087 42.4722 114.364 42.2491C123.641 42.026 132.649 45.3791 139.524 51.6146C146.398 57.8501 150.613 66.4906 151.295 75.748L151.664 74.191C151.664 74.191 162.281 73.3925 160.704 84.3513Z" fill="#FDBAB1"/>
<path d="M160.704 84.3513C159.198 94.9108 147.374 96.5975 146.486 96.7073C143.293 102.166 138.727 106.692 133.241 109.836C127.756 112.98 121.543 114.631 115.221 114.626C108.898 114.621 102.688 112.96 97.2075 109.807C91.727 106.654 87.1678 102.121 83.9839 96.6574C83.465 96.6574 71.2221 95.3 69.456 84.5908C67.64 73.672 78.2665 74.2509 78.2665 74.2509L79.0847 77.4846C79.3421 68.0631 83.2648 59.114 90.0181 52.5415C96.7715 45.9689 105.822 42.2919 115.245 42.2928C134.303 42.2928 149.17 55.627 150.547 74.3307L151.664 74.191C151.664 74.191 162.281 73.3925 160.704 84.3513Z" fill="#FED0B3"/>
<path d="M130.721 83.9022C132.666 83.9022 134.243 82.3248 134.243 80.379C134.243 78.4332 132.666 76.8558 130.721 76.8558C128.775 76.8558 127.198 78.4332 127.198 80.379C127.198 82.3248 128.775 83.9022 130.721 83.9022Z" fill="#7F4A52"/>
<path d="M101.006 79.0915C101.006 79.7883 100.8 80.4695 100.413 81.0489C100.026 81.6283 99.4756 82.0798 98.832 82.3465C98.1884 82.6132 97.4802 82.6829 96.797 82.547C96.1137 82.4111 95.4861 82.0755 94.9935 81.5828C94.501 81.0901 94.1655 80.4623 94.0296 79.7789C93.8937 79.0954 93.9634 78.387 94.23 77.7433C94.4966 77.0995 94.9481 76.5492 95.5273 76.1621C96.1065 75.775 96.7875 75.5684 97.4841 75.5684C98.4183 75.5684 99.3142 75.9395 99.9747 76.6003C100.635 77.261 101.006 78.1571 101.006 79.0915Z" fill="#7F4A52"/>
<path d="M112.291 91.8168L113.808 92.735C114.075 92.8892 114.378 92.9703 114.686 92.9703C114.994 92.9703 115.297 92.8892 115.564 92.735L117.141 91.8866C117.645 91.5531 118.029 91.0671 118.237 90.4997C118.445 89.9323 118.467 89.3132 118.298 88.7328L115.784 78.5525C115.761 78.337 115.659 78.1376 115.497 77.9927C115.336 77.8478 115.127 77.7677 114.911 77.7677C114.694 77.7677 114.485 77.8478 114.324 77.9927C114.162 78.1376 114.061 78.337 114.037 78.5525L111.413 89.2118C111.269 89.6833 111.275 90.1884 111.433 90.6557C111.591 91.1231 111.891 91.5292 112.291 91.8168Z" fill="#FE988C"/>
<path d="M114.107 101.279C108.51 101.279 106.434 97.9549 106.344 97.8052C106.293 97.7399 106.256 97.6643 106.235 97.5834C106.215 97.5026 106.212 97.4184 106.227 97.3364C106.242 97.2543 106.273 97.1764 106.321 97.1076C106.368 97.0388 106.429 96.9808 106.5 96.9374C106.571 96.894 106.65 96.8662 106.733 96.8558C106.816 96.8455 106.9 96.8528 106.979 96.8773C107.059 96.9017 107.132 96.9428 107.195 96.9979C107.258 97.0529 107.308 97.1206 107.342 97.1964C107.422 97.3262 109.338 100.36 114.786 100.071C120.234 99.7814 122.269 96.5776 122.359 96.4379C122.442 96.3062 122.572 96.2118 122.723 96.1746C122.874 96.1373 123.033 96.1602 123.167 96.2383C123.301 96.319 123.397 96.4495 123.434 96.6012C123.472 96.7528 123.448 96.913 123.367 97.0467C123.277 97.2064 120.982 100.939 114.846 101.259L114.107 101.279Z" fill="#FF7E7E"/>
<path d="M128.066 70.6079C131.185 70.5094 134.297 70.9656 137.256 71.9553C137.613 72.1032 137.997 72.1746 138.384 72.1649C138.575 72.1551 138.758 72.0838 138.905 71.9615C139.053 71.8392 139.157 71.6724 139.202 71.4862C139.272 71.0071 138.793 70.6378 138.374 70.3883C135.43 68.7016 131.229 67.1646 127.767 67.2743C126.67 67.2743 124.664 67.9031 124.125 68.981C123.038 71.1169 126.62 70.6578 128.066 70.6079Z" fill="#7F4A52"/>
<path d="M100.976 70.6978C97.8655 70.537 94.7508 70.929 91.7767 71.8555C91.4155 72.0006 91.0281 72.0686 90.6392 72.0551C90.4464 72.0438 90.2628 71.9692 90.1166 71.8429C89.9705 71.7166 89.8701 71.5457 89.831 71.3565C89.7711 70.8774 90.25 70.5181 90.6791 70.2786C93.6725 68.6418 97.8732 67.1646 101.336 67.2844C102.433 67.3443 104.419 67.9631 104.948 69.051C105.995 71.2767 102.463 70.7676 100.976 70.6978Z" fill="#7F4A52"/>
<path d="M151.654 78.3629C152.512 77.9208 153.492 77.7731 154.442 77.9427C155.392 78.1122 156.26 78.5895 156.913 79.3011C157.538 80.0371 157.987 80.906 158.225 81.8417C158.464 82.7773 158.486 83.7552 158.29 84.7006C157.824 86.9861 156.526 89.017 154.648 90.3996C152.766 91.764 150.562 92.6168 148.252 92.8748" stroke="#FF7E7E" stroke-width="0.59" stroke-linecap="round" stroke-linejoin="round"/>
<path d="M158.37 82.7744C158.37 82.7744 152.612 82.6646 151.255 86.577C149.898 90.4894 150.627 92.3757 150.627 92.3757" stroke="#FF7E7E" stroke-width="0.59" stroke-linecap="round" stroke-linejoin="round"/>
<path d="M78.3065 78.3629C77.4484 77.9208 76.4689 77.7731 75.5187 77.9427C74.5685 78.1122 73.7004 78.5895 73.0481 79.3011C72.4231 80.0371 71.9742 80.906 71.7356 81.8417C71.497 82.7773 71.4749 83.7552 71.6711 84.7006C72.1336 86.9875 73.4322 89.0196 75.3131 90.3996C77.1981 91.7656 79.4054 92.6185 81.7189 92.8748" stroke="#FF7E7E" stroke-width="0.59" stroke-linecap="round" stroke-linejoin="round"/>
<path d="M71.5914 82.7744C71.5914 82.7744 77.3487 82.6646 78.7057 86.577C80.0627 90.4894 79.3343 92.3757 79.3343 92.3757" stroke="#FF7E7E" stroke-width="0.59" stroke-linecap="round" stroke-linejoin="round"/>
<path d="M79.0848 77.4847C79.0848 77.4847 103.67 63.2723 110.515 47.2234C110.515 47.2234 130.471 75.269 148.252 74.77C152.243 74.6502 151.664 74.1911 151.664 74.1911C151.664 74.1911 145.937 37.2128 112.81 38.9195C77.8974 40.6162 79.0848 77.4847 79.0848 77.4847Z" fill="#7F4A52"/>
<path d="M79.5237 76.8459C79.5237 76.8459 79.1246 85.9382 81.7089 90.8188V74.7699L79.5237 76.8459Z" fill="#7F4A52"/>
<path d="M151.644 74.0113C151.644 74.0113 151.026 83.6327 147.913 88.5431L149.709 71.576L151.644 74.0113Z" fill="#7F4A52"/>
<path d="M170.243 246.008C170.243 246.008 170.243 246.008 170.243 246.068C169.885 247.193 169.451 248.293 168.946 249.361C166.322 254.102 160.694 258.164 153.351 261.099C144.37 264.702 115.664 247.405 115.664 247.405L139.002 230.668C139.002 230.668 143.822 232.005 149.679 234.011L156.414 164.336C156.414 164.336 179.193 218.571 170.243 246.008Z" fill="white" stroke="#61CFBF" stroke-width="0.5" stroke-linecap="round" stroke-linejoin="round"/>
<path d="M103.94 145.373L75.5625 165.753L84.2832 235.049L71.8307 348H168.108L149.429 233.412L156.374 164.366L127.328 144.495L115.634 160.853L103.94 145.373Z" fill="white" stroke="#61CFBF" stroke-width="0.5" stroke-linecap="round" stroke-linejoin="round"/>
<path d="M115.563 160.195L109.488 151.671L121.577 151.284L115.563 160.195Z" fill="white" stroke="#61CFBF"/>
<path d="M96.167 150.952L116.752 176.652" stroke="#10C6EF" stroke-width="0.5" stroke-linecap="round" stroke-linejoin="round"/>
<path d="M135.061 149.535L116.751 176.652" stroke="#61CFBF" stroke-width="0.5" stroke-linecap="round" stroke-linejoin="round"/>
<path d="M75.6622 165.344C78.7312 171.868 80.5067 178.924 80.8907 186.124" stroke="white" stroke-width="0.5" stroke-linecap="round" stroke-linejoin="round"/>
<path d="M156.384 164.376C156.384 164.376 151.784 178.718 151.684 184.138" stroke="white" stroke-width="0.5" stroke-linecap="round" stroke-linejoin="round"/>
<path d="M86.9773 229.47C91.767 224.981 97.795 222.035 104.279 221.016C107.183 220.567 110.595 220.707 112.461 223.012C103.448 226.579 94.3876 230.015 85.2811 233.322C85.3409 233.322 85.2811 231.835 85.3609 231.546C85.7329 230.739 86.2861 230.028 86.9773 229.47Z" fill="#FDBAB1"/>
<path d="M158.29 287.757L146.935 289.553C146.935 289.553 146.935 329.965 164.895 328.178" stroke="white" stroke-width="0.5" stroke-miterlimit="10"/>
<path d="M77.9473 287.897L91.9164 288.815C91.9164 288.815 92.0062 329.067 73.9561 328.907" stroke="white" stroke-width="0.5" stroke-miterlimit="10"/>
<path d="M127.757 218.451C130.983 217.971 134.278 218.315 137.336 219.449C138.446 219.966 139.516 220.563 140.539 221.236C142.141 222.1 143.569 223.254 144.75 224.639C146.446 226.885 146.745 229.859 146.935 232.624C143.873 231.91 140.851 231.03 137.885 229.989C136.616 229.616 135.383 229.128 134.203 228.532C133.49 228.139 132.8 227.706 132.137 227.234L124.903 222.244C123.906 221.575 122.279 220.487 123.716 219.499C124.954 218.817 126.344 218.457 127.757 218.451Z" fill="#FDBAB1"/>
<path d="M137.356 229.989C137.356 229.989 95.688 266.219 81.7189 268.334V268.414C28.4766 279.393 75.5825 165.763 75.5825 165.763L79.3242 195.616L84.0737 233.412V233.732C97.8034 229.19 114.506 222.384 121.85 219.918L137.356 229.989Z" fill="white" stroke="#61CFBF" stroke-width="0.5" stroke-linecap="round" stroke-linejoin="round"/>
<path d="M84.0737 233.412C84.0737 233.412 74.7343 235.768 71.8307 245.339L84.0737 233.412Z" fill="white"/>
<path d="M84.0737 233.412C84.0737 233.412 74.7343 235.768 71.8307 245.339" stroke="#10C6EF" stroke-width="0.5" stroke-linecap="round" stroke-linejoin="round"/>
<path d="M65.395 266.718C65.395 266.718 74.3053 271.319 84.0737 267.716C93.8421 264.113 137.356 229.989 137.356 229.989L121.83 219.918L84.4628 233.412L83.1058 219.659L81.9683 207.991C81.9389 206.26 81.6565 204.541 81.1302 202.891C80.1324 200.566 78.6956 198.43 77.7676 196.055" fill="white"/>
<path d="M65.4648 266.588C68.657 268.048 72.1131 268.843 75.6224 268.923C79.1356 269.045 82.6245 268.297 85.7799 266.748C86.5682 266.388 87.3066 265.899 88.0848 265.48C88.8631 265.061 89.6015 264.592 90.3399 264.123L92.5749 262.715L94.7701 261.248C97.6936 259.302 100.577 257.256 103.441 255.26C114.886 247.046 126.091 238.492 137.196 229.829V230.228L121.681 220.158H121.9L84.5427 233.642C84.4805 233.664 84.4119 233.661 84.352 233.633C84.2922 233.605 84.2459 233.554 84.2234 233.492C84.2234 233.492 84.2234 233.492 84.2234 233.432L82.3475 214.349C82.0282 211.185 81.7488 207.962 81.4096 204.828C81.099 203.289 80.5288 201.814 79.7233 200.466C78.9289 199.07 78.2127 197.63 77.5781 196.154C77.5546 196.092 77.5561 196.023 77.5821 195.962C77.6081 195.901 77.6567 195.852 77.7177 195.825C77.7485 195.812 77.7815 195.805 77.8148 195.806C77.8482 195.806 77.8812 195.812 77.9119 195.825C77.9426 195.838 77.9704 195.857 77.9936 195.881C78.0168 195.905 78.035 195.934 78.047 195.965C78.671 197.426 79.3806 198.849 80.1723 200.227C81.0137 201.622 81.611 203.151 81.9384 204.748C82.2876 207.962 82.5571 211.105 82.9362 214.299L84.7123 233.382L84.373 233.173L121.75 219.679C121.784 219.661 121.822 219.652 121.86 219.652C121.898 219.652 121.936 219.661 121.97 219.679L137.486 229.749C137.541 229.786 137.581 229.843 137.596 229.908C137.61 229.973 137.6 230.041 137.566 230.099L137.506 230.158C126.37 238.832 115.145 247.355 103.67 255.499C100.797 257.495 97.9031 259.561 94.9696 261.488L92.7645 262.955L90.5195 264.352C89.7811 264.831 89.0228 265.29 88.2545 265.719C87.4862 266.149 86.7378 266.618 85.9196 266.987C82.7147 268.549 79.1753 269.3 75.6124 269.173C72.0604 269.075 68.5647 268.26 65.3351 266.777C65.3026 266.762 65.2773 266.735 65.2643 266.702C65.2513 266.668 65.2516 266.631 65.2653 266.598C65.2824 266.565 65.3114 266.539 65.3465 266.526C65.3816 266.513 65.4202 266.514 65.4548 266.528L65.4648 266.588Z" fill="#61CFBF"/>
<path d="M152.762 201.853C154.368 199.614 155.79 197.247 157.013 194.777L152.762 201.853Z" fill="white"/>
<path d="M152.762 201.853C154.368 199.614 155.79 197.247 157.013 194.777" stroke="#61CFBF" stroke-width="0.5" stroke-linecap="round" stroke-linejoin="round"/>
<path d="M137.356 229.989L149.429 233.412L153.64 193.031" fill="white"/>
<path d="M137.356 229.989L149.429 233.412L153.64 193.031" stroke="#61CFBF" stroke-width="0.5" stroke-linecap="round" stroke-linejoin="round"/>
<path d="M117.64 246.008C117.64 246.008 139.541 263.544 154.678 260.58C169.814 257.615 172.578 241.157 172.329 232.704" fill="white"/>
<path d="M117.789 245.818C122.838 249.735 128.266 253.136 133.993 255.968C136.85 257.396 139.825 258.574 142.884 259.492C145.929 260.429 149.109 260.847 152.293 260.729C153.083 260.681 153.869 260.588 154.648 260.45L156.953 259.851C158.466 259.357 159.916 258.687 161.273 257.855C163.974 256.157 166.229 253.837 167.849 251.088C171.121 245.599 172.309 239.111 172.229 232.714C172.229 232.687 172.239 232.662 172.258 232.643C172.277 232.624 172.302 232.614 172.329 232.614C172.355 232.614 172.381 232.624 172.399 232.643C172.418 232.662 172.428 232.687 172.428 232.714C172.538 239.091 171.371 245.688 168.078 251.238C165.645 255.478 161.711 258.651 157.052 260.13L154.718 260.749C153.922 260.894 153.119 260.994 152.313 261.049C149.087 261.185 145.862 260.773 142.774 259.831C139.687 258.931 136.683 257.769 133.794 256.358C128.026 253.534 122.557 250.137 117.47 246.217C117.446 246.195 117.427 246.168 117.414 246.138C117.401 246.108 117.394 246.075 117.394 246.043C117.394 246.01 117.401 245.978 117.414 245.948C117.427 245.918 117.446 245.89 117.47 245.868C117.51 245.815 117.569 245.78 117.634 245.771C117.7 245.761 117.766 245.778 117.819 245.818H117.789Z" fill="#61CFBF"/>
<path d="M149.429 233.412C149.429 233.412 157.641 235.219 161.123 239.401L149.429 233.412Z" fill="white"/>
<path d="M149.429 233.412C149.429 233.412 157.641 235.219 161.123 239.401" stroke="#61CFBF" stroke-width="0.5" stroke-linecap="round" stroke-linejoin="round"/>
<path d="M143.403 172.73C143.213 143.626 124.095 131.919 123.916 131.809C123.784 131.727 123.632 131.683 123.477 131.679C123.686 132.737 123.836 133.406 124.065 134.304C128.306 137.528 141.078 149.455 141.227 172.76C141.307 186.254 141.317 191.723 141.307 193.929V194.348C141.251 194.48 141.224 194.623 141.227 194.767C141.227 195.516 141.227 196.534 142.335 196.534C143.413 196.534 143.423 195.536 143.433 194.667V194.298C143.433 193.679 143.433 192.761 143.433 191.434C143.472 188.19 143.463 182.511 143.403 172.73Z" fill="#87D1C6"/>
<path d="M147.723 200.306C147.725 201.57 147.352 202.806 146.652 203.858C145.951 204.91 144.955 205.73 143.788 206.215C142.621 206.7 141.337 206.828 140.097 206.582C138.858 206.337 137.719 205.729 136.825 204.837C135.931 203.944 135.322 202.806 135.075 201.566C134.827 200.327 134.953 199.042 135.436 197.874C135.919 196.706 136.738 195.708 137.788 195.006C138.839 194.304 140.074 193.929 141.337 193.929C143.028 193.931 144.649 194.604 145.846 195.799C147.043 196.994 147.718 198.615 147.723 200.306Z" fill="#87D1C6"/>
<path d="M144.201 200.057C144.201 200.623 144.033 201.177 143.718 201.648C143.404 202.119 142.956 202.486 142.433 202.703C141.91 202.92 141.334 202.977 140.779 202.866C140.223 202.756 139.713 202.483 139.312 202.082C138.912 201.682 138.639 201.171 138.529 200.616C138.418 200.06 138.475 199.484 138.691 198.961C138.908 198.437 139.275 197.99 139.746 197.675C140.217 197.36 140.771 197.192 141.337 197.192C142.097 197.192 142.825 197.494 143.362 198.031C143.899 198.569 144.201 199.297 144.201 200.057V200.057Z" stroke="white" stroke-width="0.54" stroke-miterlimit="10"/>
<path d="M107.033 135.263C102.653 140.343 89.6514 157.33 89.4917 179.467C89.4917 179.976 89.4917 180.465 89.4917 181.004C89.4939 181.182 89.4523 181.358 89.3705 181.516C89.2888 181.675 89.1693 181.811 89.0228 181.912C88.9596 181.946 88.8926 181.973 88.8232 181.992C88.7533 182.022 88.6794 182.043 88.6037 182.052H88.474C88.189 182.052 87.9153 181.94 87.7119 181.74C87.5085 181.541 87.3916 181.269 87.3864 180.984C87.3864 180.684 87.3864 180.395 87.3864 180.086C87.2567 152.329 106.784 132.308 106.983 132.099C107.101 131.978 107.245 131.888 107.405 131.834C107.565 131.78 107.734 131.765 107.901 131.789C107.688 132.965 107.398 134.125 107.033 135.263Z" fill="#87D1C6"/>
<path d="M83.4251 205.037C83.924 207.303 84.5127 209.558 85.1912 211.784C85.8697 214.01 86.3786 216.515 87.8154 218.451C89.2522 220.387 91.9563 220.657 94.1913 220.008" stroke="#C5E7E2" stroke-width="1.09" stroke-linecap="round" stroke-linejoin="round"/>
<path d="M101.435 199.518C102.044 201.175 102.583 202.852 103.092 204.508C103.92 207.283 105.207 210.796 104.848 213.73C104.598 215.796 102.224 217.344 100.358 217.892" stroke="#C5E7E2" stroke-width="1.09" stroke-linecap="round" stroke-linejoin="round"/>
<path d="M83.6148 205.995C83.3755 205.995 83.1433 205.915 82.9539 205.769C82.7645 205.623 82.6285 205.418 82.5671 205.187C82.4074 204.568 78.5759 190.046 83.026 183.299C83.5786 182.427 84.3083 181.68 85.1677 181.108C86.0271 180.535 86.9972 180.15 88.015 179.976C88.8657 179.549 89.8012 179.319 90.7526 179.302C91.7041 179.284 92.6473 179.481 93.5129 179.876C97.7635 181.802 100.747 188.18 102.393 198.839C102.417 199.114 102.335 199.388 102.165 199.605C101.994 199.822 101.747 199.966 101.475 200.008C101.202 200.05 100.923 199.986 100.696 199.83C100.468 199.675 100.308 199.438 100.248 199.169C98.3522 186.922 95.0794 183.01 92.6648 181.882C92.0842 181.601 91.4454 181.461 90.8005 181.473C90.1555 181.485 89.5226 181.649 88.953 181.952C88.8293 182.031 88.6896 182.083 88.5439 182.102C87.7825 182.201 87.0527 182.468 86.4072 182.884C85.7618 183.3 85.217 183.855 84.8121 184.507C80.9207 190.436 84.6026 204.468 84.6325 204.638C84.6701 204.776 84.68 204.919 84.6617 205.061C84.6433 205.202 84.5971 205.339 84.5256 205.462C84.4541 205.586 84.3589 205.694 84.2453 205.78C84.1318 205.867 84.0023 205.93 83.8642 205.965C83.783 205.988 83.6989 205.998 83.6148 205.995Z" fill="#87D1C6"/>
<path d="M94.0017 220.737L93.2235 218.451C93.1781 218.317 93.1596 218.175 93.1691 218.033C93.1787 217.892 93.216 217.754 93.279 217.627C93.3421 217.5 93.4295 217.386 93.5364 217.293C93.6433 217.2 93.7675 217.129 93.902 217.084C94.1719 216.992 94.4674 217.01 94.7236 217.136C94.9799 217.261 95.176 217.483 95.269 217.753L96.0472 220.038C96.1365 220.311 96.1156 220.608 95.9887 220.865C95.8619 221.123 95.6394 221.32 95.3687 221.415C95.0974 221.504 94.802 221.483 94.5463 221.356C94.2905 221.229 94.0949 221.007 94.0017 220.737Z" fill="#87D1C6"/>
<path d="M99.2502 219.569L98.4719 217.283C98.3829 217.012 98.4042 216.717 98.5311 216.461C98.6581 216.205 98.8805 216.009 99.1504 215.916C99.2847 215.871 99.4266 215.852 99.5681 215.862C99.7095 215.871 99.8477 215.909 99.9747 215.972C100.102 216.035 100.215 216.122 100.308 216.229C100.401 216.336 100.472 216.46 100.517 216.595L101.296 218.88C101.341 219.015 101.36 219.157 101.35 219.298C101.34 219.44 101.303 219.578 101.24 219.705C101.177 219.832 101.09 219.945 100.983 220.038C100.876 220.131 100.752 220.203 100.617 220.248C100.483 220.293 100.341 220.312 100.199 220.302C100.058 220.292 99.9198 220.255 99.7929 220.192C99.6659 220.129 99.5526 220.042 99.4594 219.935C99.3663 219.828 99.2952 219.703 99.2502 219.569Z" fill="#87D1C6"/>
<path d="M200.397 123.825L169.046 154.845L181.209 201.903L175.661 348H272.018L258.498 199.518C258.498 199.518 269.245 152.689 269.474 152.03C269.704 151.371 236.806 123.825 236.806 123.825H200.397Z" fill="white" stroke="#61CFBF" stroke-width="0.5" stroke-linecap="round" stroke-linejoin="round"/>
<path d="M200.397 123.825C200.397 123.825 192.414 142.648 189.91 148.207L200.397 155.922C200.397 155.922 195.767 169.496 195.148 171.971L221.69 207.462L244.828 165.674L236.796 155.334L246.375 143.916L236.796 123.855" stroke="#61CFBF" stroke-width="0.5" stroke-linecap="round" stroke-linejoin="round"/>
<path d="M220.323 177.012L221.69 207.463" stroke="#61CFBF" stroke-width="0.5" stroke-linecap="round" stroke-linejoin="round"/>
<path d="M224.324 290.362V348" stroke="#61CFBF" stroke-width="0.5" stroke-linecap="round" stroke-linejoin="round"/>
<path d="M265.962 281.449H251.344C251.344 281.449 246.026 326.282 269.504 320.104" stroke="#61CFBF" stroke-width="0.5" stroke-linecap="round" stroke-linejoin="round"/>
<path d="M178.196 281.449H194.16C194.16 281.449 200.147 326.861 176.709 320.683" stroke="#61CFBF" stroke-width="0.5" stroke-linecap="round" stroke-linejoin="round"/>
<path d="M208.519 88.9524C208.848 88.9524 210.075 95.9388 210.375 101.927C210.784 110.061 208.978 112.387 206.673 120.242C206.673 120.242 211.193 127.647 217.778 127.448C224.364 127.248 228.684 119.463 228.684 119.463C226.339 114.557 225.009 109.227 224.773 103.794C224.294 93.304 225.591 88.9823 225.591 88.9823L208.519 88.9524Z" fill="#FDBAB1"/>
<path d="M208.519 88.9524C208.848 88.9524 210.075 95.9388 210.375 101.927C210.784 110.061 208.978 112.387 206.673 120.242C206.673 120.242 211.193 127.647 217.778 127.448C224.364 127.248 228.684 119.463 228.684 119.463C226.339 114.557 225.009 109.227 224.773 103.794C224.294 93.304 225.591 88.9823 225.591 88.9823L208.519 88.9524Z" fill="#FECFB1"/>
<path d="M208.908 90.1401C208.908 90.1401 209.337 95.8889 216.511 96.6674C223.685 97.4459 225.591 88.9524 225.591 88.9524H208.519L208.908 90.1401Z" fill="#FF7E7E"/>
<path d="M209.187 142.189L220.323 177.012L228.006 142.189L218.596 127.049L209.187 142.189Z" fill="#C5E7E2"/>
<path d="M209.187 112.087L218.596 127.058L209.187 142.199L200.397 123.835C200.397 123.835 202.562 118.255 209.187 112.087Z" fill="#61CFBF"/>
<path d="M226.11 112.087L218.596 127.058L228.006 142.199L236.796 123.835C233.582 119.616 230.006 115.685 226.11 112.087Z" fill="#61CFBF"/>
<path d="M213.807 134.754L215.823 139.155H221.999L223.795 135.412L218.596 127.049L213.807 134.754Z" fill="#87D1C6"/>
<path d="M213.807 156.641L215.823 139.155H221.999L225.591 155.673L220.323 177.012L213.807 156.641Z" fill="#61CFBF"/>
<path d="M216.421 197.721C217.465 197.395 218.551 197.223 219.644 197.212C219.8 197.198 219.949 197.139 220.073 197.043C220.142 196.949 220.192 196.842 220.219 196.729C220.246 196.616 220.251 196.499 220.233 196.384C220.265 195.451 220.623 194.558 221.244 193.862C221.866 193.165 222.712 192.709 223.635 192.571C224.103 192.522 224.576 192.569 225.025 192.709C225.475 192.849 225.89 193.079 226.247 193.386C226.604 193.692 226.895 194.068 227.101 194.491C227.307 194.914 227.425 195.375 227.447 195.845C227.416 196.014 227.437 196.188 227.507 196.344C227.605 196.478 227.752 196.568 227.916 196.594C229.233 196.953 230.799 196.384 231.907 197.162C233.015 197.941 233.025 199.448 232.905 200.736L219.175 200.955C218.247 200.955 215.982 201.245 215.294 200.456C214.605 199.668 215.593 198.091 216.421 197.721Z" fill="#61CFBF"/>
<path d="M196.465 199.358L195.797 237.364L192.694 290.362L245.048 289.972L249.309 199.079L196.465 199.358Z" fill="#FF7E7E"/>
<path d="M236.008 254.012C234.481 253.294 233.015 252.326 231.308 252.186C229.772 252.066 228.255 252.665 226.709 252.615C224.394 252.545 222.288 251.048 219.963 251.048C219.827 251.023 219.686 251.032 219.554 251.073C219.422 251.115 219.301 251.187 219.203 251.286C219.105 251.384 219.032 251.504 218.991 251.637C218.949 251.769 218.941 251.91 218.966 252.046C218.983 252.937 219.199 253.813 219.597 254.61C219.996 255.407 220.568 256.105 221.27 256.653C221.973 257.201 222.789 257.585 223.659 257.778C224.529 257.97 225.431 257.966 226.299 257.765L210.335 261.468C209.768 261.548 209.235 261.787 208.798 262.157C207.95 263.015 208.489 264.592 209.527 265.201C210.623 265.711 211.857 265.847 213.039 265.59C217.271 265.09 221.428 264.085 225.421 262.596C222.277 264.331 218.915 265.637 215.423 266.478C214.261 266.732 213.137 267.138 212.081 267.686C211.582 267.937 211.179 268.347 210.936 268.85C210.692 269.353 210.621 269.923 210.734 270.47C211.263 272.227 213.727 272.147 215.543 271.648C219.563 270.493 223.492 269.042 227.297 267.306L216.042 271.718C214.456 272.347 212.54 273.624 213.049 275.241C213.558 276.858 216.142 276.628 217.828 275.96L227.187 272.257C224.878 273.265 222.661 274.474 220.562 275.87C220.103 276.169 219.564 276.608 219.694 277.137C219.834 277.906 220.921 277.926 221.69 277.716C224.093 276.909 226.542 276.242 229.023 275.72C232.566 275.191 236.327 275.78 239.66 274.453C242.773 273.225 245.307 270.41 248.64 270.201C249.029 266.837 249.538 259.162 247.024 256.428C245.756 255.05 244.03 255.719 242.294 255.609C240.117 255.474 237.985 254.933 236.008 254.012Z" fill="#FFBDB8" stroke="#FF7E7E" stroke-width="0.25" stroke-miterlimit="10"/>
<path d="M284.172 249.85C284.175 249.927 284.175 250.003 284.172 250.08C284.33 252.21 283.825 254.337 282.725 256.168C276.618 266.578 248.57 272.287 247.622 272.476C247.622 271.828 247.682 270.351 247.712 267.287C247.842 259.362 242.723 252.375 242.723 252.375C250.336 247.076 256.902 243.862 262.42 242.195L258.548 199.518L269.524 152.03C269.524 152.03 285.818 235.877 284.172 249.85Z" fill="white" stroke="#61CFBF" stroke-width="0.5" stroke-linecap="round" stroke-linejoin="round"/>
<path d="M262.38 242.196C262.38 242.196 265.702 239.869 273.355 241.057L262.38 242.196Z" fill="white"/>
<path d="M262.38 242.196C262.38 242.196 265.702 239.869 273.355 241.057" stroke="#61CFBF" stroke-width="0.5" stroke-linecap="round" stroke-linejoin="round"/>
<path d="M262.739 242.115C264.614 239.459 267.391 237.575 270.552 236.816" stroke="#61CFBF" stroke-width="0.5" stroke-linecap="round" stroke-linejoin="round"/>
<path d="M167.17 242.884C168.482 241.303 170.123 240.029 171.979 239.151C176.09 237.155 181.029 237.864 185.51 237.754L200.806 237.365L223.755 236.776L225.751 256.527C225.751 256.527 163.658 280.022 152.842 260.4L152.752 260.28C152.323 259.661 150.577 256.378 151.944 244.72C151.944 244.611 151.944 244.501 151.944 244.381C152.203 242.594 152.482 240.648 152.822 238.582C157.422 209.04 168.966 154.845 168.966 154.845L181.129 201.903L179.503 237.904H179.722" fill="white"/>
<path d="M167.17 242.884C168.482 241.303 170.123 240.029 171.979 239.151C176.09 237.155 181.029 237.864 185.51 237.754L200.806 237.365L223.755 236.776L225.751 256.527C225.751 256.527 163.658 280.022 152.842 260.4L152.752 260.28C152.323 259.661 150.577 256.378 151.944 244.72C151.944 244.611 151.944 244.501 151.944 244.381C152.203 242.594 152.482 240.648 152.822 238.582C157.422 209.04 168.966 154.845 168.966 154.845L181.129 201.903L179.503 237.904H179.722" stroke="#61CFBF" stroke-width="0.5" stroke-linecap="round" stroke-linejoin="round"/>
<path d="M179.503 237.904C179.503 237.904 169.096 240.329 167.09 248.812L179.503 237.904Z" fill="white"/>
<path d="M179.503 237.904C179.503 237.904 169.096 240.329 167.09 248.812" stroke="#10C6EF" stroke-width="0.5" stroke-linecap="round" stroke-linejoin="round"/>
<path d="M224.324 237.025C224.324 237.025 231.308 233.213 235.439 231.945C239.57 230.677 245.028 224.13 246.664 225.038C248.301 225.947 246.026 231.945 244.529 233.213C244.529 233.213 249.019 232.484 249.748 234.39C250.476 236.297 249.388 238.033 249.748 239.44C250.179 241.112 250.267 242.854 250.007 244.561C249.748 247.205 252.122 249.551 251.005 251.727C249.758 254.222 231.847 259.551 226.17 255.919L224.324 237.025Z" fill="#FFCAC3" stroke="#FF7E7E" stroke-width="0.25" stroke-miterlimit="10"/>
<path d="M239.53 233.323L244.519 232.993C244.549 232.989 244.58 232.991 244.609 233C244.638 233.008 244.664 233.023 244.687 233.043C244.71 233.063 244.728 233.087 244.74 233.115C244.753 233.143 244.759 233.173 244.759 233.203C244.764 233.26 244.748 233.316 244.712 233.361C244.677 233.406 244.626 233.435 244.569 233.442L239.65 234.221C239.591 234.231 239.53 234.229 239.472 234.215C239.414 234.202 239.359 234.176 239.311 234.141C239.262 234.106 239.221 234.061 239.191 234.009C239.16 233.958 239.14 233.901 239.131 233.842C239.114 233.723 239.144 233.602 239.215 233.505C239.286 233.408 239.392 233.342 239.51 233.323H239.53Z" fill="#FF7E7E"/>
<path d="M175.192 193.09C177.083 196.096 179.124 199.004 181.309 201.803" stroke="#61CFBF" stroke-width="0.5" stroke-linecap="round" stroke-linejoin="round"/>
<path d="M258.508 199.518L263.487 191.014" stroke="#61CFBF" stroke-width="0.91" stroke-linecap="round" stroke-linejoin="round"/>
<path d="M247.582 154.984C247.373 122.587 226.09 109.542 225.89 109.413C225.743 109.321 225.575 109.27 225.401 109.263C225.631 110.451 225.791 111.189 226.06 112.197C230.77 115.79 245.018 129.065 245.168 155.004C245.248 170.035 245.258 176.133 245.248 178.578V179.048C245.191 179.194 245.164 179.35 245.168 179.507C245.168 180.345 245.168 181.503 246.395 181.503C247.592 181.503 247.602 180.385 247.612 179.417V179.008C247.612 178.319 247.612 177.291 247.612 175.814C247.662 172.191 247.652 165.873 247.582 154.984Z" fill="#61CFBF"/>
<path d="M245.287 192.791C249.211 192.791 252.392 189.609 252.392 185.685C252.392 181.76 249.211 178.578 245.287 178.578C241.364 178.578 238.183 181.76 238.183 185.685C238.183 189.609 241.364 192.791 245.287 192.791Z" fill="#61CFBF"/>
<path d="M245.287 188.599C247.051 188.599 248.48 187.169 248.48 185.405C248.48 183.641 247.051 182.211 245.287 182.211C243.524 182.211 242.095 183.641 242.095 185.405C242.095 187.169 243.524 188.599 245.287 188.599Z" stroke="white" stroke-width="0.61" stroke-miterlimit="10"/>
<path d="M209.237 112.267C204.368 117.916 189.89 136.829 189.71 161.472C189.71 162.041 189.71 162.609 189.71 163.188C189.71 163.384 189.662 163.577 189.572 163.75C189.482 163.924 189.351 164.073 189.191 164.186H189.132C189.062 164.224 188.988 164.254 188.912 164.276C188.835 164.307 188.755 164.327 188.673 164.336C188.623 164.331 188.573 164.331 188.523 164.336C188.206 164.336 187.902 164.212 187.676 163.989C187.45 163.767 187.321 163.465 187.316 163.148C187.316 162.809 187.316 162.48 187.316 162.15C187.166 131.21 208.908 108.954 209.127 108.724C209.256 108.594 209.413 108.495 209.586 108.434C209.759 108.374 209.943 108.353 210.125 108.375C209.911 109.69 209.615 110.99 209.237 112.267Z" fill="#61CFBF"/>
<path d="M182.955 189.946C183.514 192.472 184.173 194.987 184.951 197.462C185.729 199.937 186.278 202.722 187.874 204.877C189.471 207.033 192.484 207.333 194.969 206.614" stroke="#C5E7E2" stroke-width="1.21" stroke-linecap="round" stroke-linejoin="round"/>
<path d="M203.011 183.799C203.679 185.645 204.288 187.511 204.857 189.398C205.775 192.492 207.212 196.384 206.852 199.678C206.563 201.973 203.929 203.67 201.863 204.299" stroke="#C5E7E2" stroke-width="1.21" stroke-linecap="round" stroke-linejoin="round"/>
<path d="M183.175 191.014C182.908 191.014 182.649 190.926 182.438 190.764C182.227 190.601 182.076 190.374 182.007 190.116C181.818 189.427 177.587 173.259 182.516 165.753C183.129 164.773 183.945 163.935 184.909 163.296C185.873 162.657 186.962 162.233 188.104 162.051C189.051 161.571 190.094 161.312 191.154 161.293C192.215 161.274 193.267 161.496 194.23 161.941C198.95 164.077 202.273 171.173 204.108 183.03C204.139 183.189 204.137 183.353 204.103 183.512C204.069 183.67 204.003 183.82 203.909 183.953C203.816 184.085 203.697 184.198 203.559 184.283C203.421 184.369 203.268 184.426 203.107 184.45C202.947 184.475 202.784 184.467 202.626 184.428C202.469 184.388 202.322 184.317 202.192 184.219C202.063 184.121 201.955 183.997 201.875 183.857C201.794 183.716 201.743 183.56 201.724 183.399C199.608 169.766 195.956 165.434 193.272 164.156C192.626 163.844 191.915 163.688 191.197 163.702C190.48 163.715 189.775 163.899 189.142 164.236C189 164.319 188.844 164.377 188.683 164.406C187.838 164.514 187.028 164.81 186.311 165.271C185.595 165.732 184.99 166.347 184.542 167.071C180.201 173.678 184.292 189.338 184.342 189.487C184.383 189.641 184.393 189.801 184.372 189.958C184.351 190.115 184.299 190.267 184.219 190.404C184.139 190.541 184.033 190.661 183.907 190.757C183.781 190.853 183.637 190.924 183.484 190.964C183.384 190.995 183.28 191.012 183.175 191.014Z" fill="#61CFBF"/>
<path d="M194.729 207.423L193.861 204.878C193.762 204.574 193.787 204.245 193.928 203.959C194.07 203.674 194.318 203.455 194.619 203.351C194.922 203.252 195.252 203.276 195.538 203.418C195.823 203.56 196.041 203.808 196.146 204.109L197.004 206.654C197.103 206.956 197.08 207.285 196.941 207.57C196.801 207.855 196.555 208.075 196.256 208.181C195.953 208.283 195.622 208.26 195.336 208.117C195.05 207.975 194.831 207.725 194.729 207.423Z" fill="#C5E7E2"/>
<path d="M200.576 206.155L199.718 203.61C199.666 203.461 199.645 203.302 199.654 203.145C199.664 202.987 199.705 202.832 199.774 202.69C199.844 202.549 199.941 202.422 200.06 202.317C200.178 202.213 200.317 202.133 200.466 202.083C200.768 201.984 201.097 202.007 201.382 202.146C201.667 202.286 201.887 202.532 201.993 202.831L202.851 205.376C202.903 205.526 202.925 205.684 202.915 205.842C202.905 206 202.865 206.154 202.795 206.296C202.725 206.438 202.628 206.565 202.51 206.669C202.391 206.773 202.253 206.853 202.103 206.904C201.801 207.005 201.471 206.984 201.186 206.844C200.9 206.703 200.681 206.456 200.576 206.155Z" fill="#C5E7E2"/>
<path d="M264.315 60.218C262.779 71.0171 250.686 72.7537 249.768 72.8535C246.504 78.4448 241.833 83.0834 236.219 86.307C230.606 89.5307 224.246 91.227 217.773 91.227C211.3 91.227 204.941 89.5307 199.327 86.307C193.714 83.0834 189.043 78.4448 185.779 72.8535C185.25 72.8535 172.718 71.4562 170.902 60.4975C169.056 49.3191 179.882 49.908 179.882 49.908L180.73 53.2216C180.966 43.7172 184.848 34.6679 191.572 27.9481C198.296 21.2283 207.346 17.3528 216.848 17.1245C226.35 16.8961 235.575 20.3324 242.614 26.7215C249.653 33.1106 253.965 41.963 254.657 51.445L255.036 49.8481C255.036 49.8481 265.952 48.9798 264.315 60.218Z" fill="#FDBAB1"/>
<path d="M264.315 60.218C262.779 71.0171 250.686 72.7537 249.768 72.8535C246.504 78.4448 241.833 83.0834 236.219 86.307C230.606 89.5307 224.246 91.227 217.773 91.227C211.3 91.227 204.941 89.5307 199.327 86.307C193.714 83.0834 189.043 78.4448 185.779 72.8535C185.25 72.8535 172.718 71.4562 170.902 60.4975C169.056 49.3191 179.882 49.908 179.882 49.908L180.73 53.2216C180.966 43.7172 184.848 34.6679 191.572 27.9481C198.296 21.2283 207.346 17.3528 216.848 17.1245C226.35 16.8961 235.575 20.3324 242.614 26.7215C249.653 33.1106 253.965 41.963 254.657 51.445L255.036 49.8481C255.036 49.8481 265.952 48.9798 264.315 60.218Z" fill="#FECFB2"/>
<path d="M225.601 45.7562C225.626 46.1559 225.764 46.5402 226 46.864C226.34 47.3009 226.802 47.6274 227.327 47.8022C229.822 48.8003 232.775 47.8721 235.31 47.6226C239.83 47.1634 244.38 47.882 248.86 48.6206C248.743 47.7532 248.424 46.9253 247.928 46.2041C247.432 45.4828 246.774 44.8883 246.006 44.4687C245.159 44.0738 244.268 43.7822 243.352 43.6003C240.751 42.9523 238.112 42.4722 235.449 42.1631C232.685 41.8837 227.786 41.3347 226.02 44.1593C225.722 44.6367 225.575 45.1937 225.601 45.7562Z" fill="#7F4A52"/>
<path d="M207.551 43.76C207.621 45.2571 205.865 46.1454 204.378 46.325C202.223 46.4329 200.064 46.3561 197.922 46.0955C193.382 45.8559 188.882 46.7941 184.432 47.7323C184.509 46.8608 184.789 46.0196 185.25 45.276C185.711 44.5324 186.34 43.9073 187.086 43.4506C187.907 43.0069 188.783 42.6714 189.69 42.4525C192.474 41.6541 207.232 37.2925 207.551 43.76Z" fill="#7F4A52"/>
<path d="M237.235 56.136C237.237 56.851 237.027 57.5505 236.631 58.146C236.236 58.7414 235.672 59.2061 235.012 59.4811C234.353 59.756 233.626 59.829 232.925 59.6907C232.223 59.5525 231.579 59.2091 231.073 58.7043C230.567 58.1994 230.222 57.5556 230.081 56.8545C229.941 56.1534 230.012 55.4264 230.285 54.7656C230.558 54.1049 231.021 53.54 231.615 53.1426C232.21 52.7451 232.908 52.533 233.623 52.533C234.579 52.533 235.497 52.9122 236.174 53.5876C236.851 54.2631 237.233 55.1795 237.235 56.136Z" fill="#7F4A52"/>
<path d="M203.21 54.8284C203.21 55.543 202.999 56.2416 202.602 56.8357C202.205 57.4299 201.641 57.893 200.981 58.1664C200.321 58.4399 199.594 58.5114 198.894 58.372C198.193 58.2326 197.549 57.8885 197.044 57.3832C196.539 56.8779 196.195 56.2342 196.056 55.5333C195.916 54.8325 195.988 54.106 196.261 53.4458C196.535 52.7856 196.998 52.2214 197.592 51.8244C198.186 51.4274 198.884 51.2155 199.598 51.2155C200.556 51.2155 201.475 51.5961 202.152 52.2737C202.83 52.9512 203.21 53.8702 203.21 54.8284Z" fill="#7F4A52"/>
<path d="M213.089 68.8613L215.613 70.059C216.068 70.2769 216.563 70.3958 217.067 70.4078C217.571 70.4199 218.072 70.3248 218.537 70.1288L221.151 69.021C221.93 68.6923 222.56 68.0848 222.916 67.3172C223.272 66.5495 223.329 65.6767 223.077 64.869L218.896 51.475C218.802 51.1632 218.61 50.89 218.348 50.6959C218.087 50.5017 217.77 50.3969 217.444 50.3969C217.118 50.3969 216.801 50.5017 216.54 50.6959C216.278 50.89 216.086 51.1632 215.992 51.475L211.612 65.4978C211.41 66.1423 211.449 66.838 211.72 67.4564C211.992 68.0747 212.478 68.5738 213.089 68.8613Z" fill="#FE988C"/>
<path d="M216.621 77.5344C210.893 77.5344 208.768 74.131 208.638 73.9813C208.595 73.9144 208.566 73.8394 208.553 73.7608C208.54 73.6823 208.542 73.6019 208.561 73.5244C208.58 73.447 208.614 73.3741 208.661 73.3103C208.709 73.2464 208.769 73.1929 208.838 73.1529C208.975 73.0712 209.138 73.0464 209.293 73.0837C209.448 73.121 209.582 73.2175 209.666 73.3525C209.746 73.4923 211.722 76.5963 217.289 76.3467C222.857 76.0972 224.952 72.7737 225.042 72.624C225.127 72.4889 225.261 72.3924 225.416 72.3551C225.57 72.3178 225.734 72.3426 225.87 72.4243C225.938 72.4653 225.997 72.5193 226.044 72.5832C226.091 72.6472 226.125 72.7198 226.143 72.7968C226.162 72.8739 226.165 72.9539 226.152 73.0321C226.14 73.1104 226.112 73.1854 226.07 73.2527C225.98 73.4124 223.625 77.245 217.349 77.5544C217.13 77.5344 216.87 77.5344 216.621 77.5344Z" fill="#7F4A52"/>
<path d="M255.066 54.08C255.947 53.6306 256.952 53.4849 257.924 53.6653C258.897 53.8458 259.783 54.3424 260.444 55.0781C261.087 55.8303 261.549 56.7197 261.794 57.6782C262.04 58.6367 262.063 59.6387 261.861 60.6074C261.384 62.9493 260.054 65.0304 258.129 66.446C256.203 67.8413 253.947 68.7115 251.584 68.9711" stroke="#FF7E7E" stroke-width="0.61" stroke-linecap="round" stroke-linejoin="round"/>
<path d="M261.941 58.6012C261.941 58.6012 256.044 58.4814 254.657 62.4937C253.27 66.5059 254.018 68.4222 254.018 68.4222" stroke="#FF7E7E" stroke-width="0.61" stroke-linecap="round" stroke-linejoin="round"/>
<path d="M179.962 54.08C179.081 53.6306 178.076 53.4849 177.103 53.6653C176.131 53.8458 175.245 54.3424 174.584 55.0781C173.941 55.8303 173.479 56.7197 173.234 57.6782C172.988 58.6367 172.965 59.6387 173.167 60.6074C173.643 62.9493 174.974 65.0304 176.899 66.446C178.843 67.8352 181.117 68.6919 183.494 68.9312" stroke="#FF7E7E" stroke-width="0.61" stroke-linecap="round" stroke-linejoin="round"/>
<path d="M173.087 58.6012C173.087 58.6012 178.984 58.4814 180.371 62.4937C181.758 66.5059 181.009 68.4222 181.009 68.4222" stroke="#FF7E7E" stroke-width="0.61" stroke-linecap="round" stroke-linejoin="round"/>
<path d="M254.936 53.9602C254.667 55.7368 253.549 61.2062 249.708 64.6794L252.641 52.5829C239.121 41.7738 240.528 24.4275 234.821 21.2836C233.731 20.6777 232.502 20.3648 231.256 20.3753C230.009 20.3858 228.786 20.7193 227.706 21.3435C227.706 21.3435 223.406 17.5109 215.823 21.054C207.202 25.0463 206.673 47.0037 206.673 47.0037L200.556 48.4709C200.427 47.4728 200.267 46.3051 200.087 44.9976C198.541 33.7394 205.336 20.7746 205.336 20.7746C197.573 28.9088 196.635 44.279 196.535 49.439L192.065 50.5169C192.046 50.2808 191.992 50.0488 191.905 49.8282C191.147 47.6924 191.905 35.7455 191.905 35.7455C189.76 40.6161 190.199 47.902 190.479 50.8962L182.107 52.8923L182.566 65.6276C178.864 60.5874 179.573 53.4911 179.573 53.4911L176.579 54.2097C170.443 41.9136 171.081 21.9523 188.054 6.54218C205.026 -8.86794 233.104 7.77978 233.104 7.77978C233.104 7.77978 255.335 5.75371 258.847 21.9523C262.579 39.3885 255.954 52.1437 254.936 53.9602Z" fill="#7F4A52"/>
<defs>
<linearGradient id="paint0_linear" x1="360.692" y1="131.744" x2="325.954" y2="63.4294" gradientUnits="userSpaceOnUse">
<stop stop-color="#FAB68B"/>
<stop offset="1" stop-color="#FFD3B8"/>
</linearGradient>
<linearGradient id="paint1_linear" x1="325.969" y1="91.0782" x2="326.039" y2="100.27" gradientUnits="userSpaceOnUse">
<stop stop-color="#FDBAB1" stop-opacity="0"/>
<stop offset="1" stop-color="#FF7E7E" stop-opacity="0.7"/>
</linearGradient>
</defs>
</svg>
