<svg width="470" height="438" viewBox="0 0 470 438" fill="none" xmlns="http://www.w3.org/2000/svg">
<g opacity="0.5">
<path d="M90.4455 45.3407C90.4455 45.3407 255.3 -32.3699 317.584 15.6816C379.868 63.7331 257.061 160.497 314.646 146.389C374.476 131.741 440.777 163.889 438.4 215.498C435.099 286.666 303.048 325.753 328.665 325.533C383.687 325.037 412.573 343.969 377.854 376.194C332.088 418.651 198.485 455.59 174.76 429.059C151.035 402.527 212.263 342.978 160.521 354.575C40.068 381.558 -42.794 298.186 23.5176 242.392C50.1039 220.024 132.691 178.085 84.195 167.127C4.40321 149.054 -43.3993 104.064 90.4455 45.3407Z" fill="#C5E7E2"/>
<path d="M198.804 62.0164C198.804 62.0164 343.656 15.1457 390.264 61.5098C436.871 107.874 324.753 174.951 373.995 169.379C425.153 163.595 476.718 197.211 469.281 239.734C459.027 298.269 345.332 316.646 366.657 319.179C412.307 324.582 434.266 343.311 402.081 366.289C359.628 396.528 244.919 412.963 228.101 388.493C211.283 364.023 268.3 321.205 224.171 325.328C121.448 334.925 61.5722 257.14 122.448 217.994C146.858 202.291 219.777 176.33 180.733 162.118C116.476 138.746 81.6013 96.4483 198.804 62.0164Z" fill="#61CFBF"/>
</g>
<path d="M343.994 167.755C343.994 167.755 364.275 161.499 364.055 140.607C363.835 119.714 340.154 118.161 340.154 118.161C340.154 118.161 330.932 154.913 343.994 167.755Z" fill="#AA5D27"/>
<path d="M312.06 123.745C312.06 123.745 278.673 163.394 305.953 178.394C317.155 184.539 325.309 180.861 322.272 193.031C319.235 205.2 316.44 207.568 323.482 209.815C333.738 213.119 362.614 218.119 352.743 200.784C336.236 171.863 357.948 129.076 336.423 126.73C317.089 124.626 316.924 111.333 312.06 123.745Z" fill="#FAB68B"/>
<path d="M437.641 272.415H283.174V375.324H437.641V272.415Z" fill="#D0C4B3"/>
<path d="M281.281 215.52H424.997L403.351 375.324H256.588L281.281 215.52Z" fill="white"/>
<path d="M245.98 163.085C245.98 163.085 281.193 216.907 315.559 207.744V220.046C315.559 220.046 268.417 238.769 248.213 215.52C228.01 192.27 245.98 163.085 245.98 163.085Z" fill="white"/>
<path d="M130.127 205.288C130.127 205.288 150.903 236.985 148.46 242.734C138.963 264.937 117.648 230.135 116.085 221.368C114.523 212.601 118.462 188.328 130.127 205.288Z" fill="#FAB68B"/>
<path d="M102.902 168.504C102.902 168.504 128.509 178.636 132.053 218.504C134.87 249.826 96.949 196.18 102.902 168.504Z" fill="#FFFAEF"/>
<path d="M63.441 156.774C70.892 156.774 76.9322 150.729 76.9322 143.272C76.9322 135.815 70.892 129.769 63.441 129.769C55.99 129.769 49.9498 135.815 49.9498 143.272C49.9498 150.729 55.99 156.774 63.441 156.774Z" fill="#383A45"/>
<path d="M196.978 115.639C196.978 115.639 175.123 109.571 175.343 88.6785C175.563 67.7861 200.84 66.079 200.84 66.079C200.84 66.079 210.062 102.842 196.978 115.639Z" fill="#383A45"/>
<path d="M237.792 75.0109C237.792 75.0109 254.101 121.994 235.911 130.926C224.488 136.565 215.685 128.789 218.722 140.97C221.759 153.151 224.554 155.508 217.512 157.755C207.256 161.059 182.595 162.083 189.517 143.371C195.019 128.514 183.046 77.0154 204.571 74.6695C223.916 72.5549 232.884 62.5988 237.792 75.0109Z" fill="#FAB68B"/>
<path d="M193.313 143.591C193.313 143.591 174.716 148.735 166.584 173.327C158.452 197.92 162.27 322.096 162.27 322.096H247.3C247.3 322.096 259.845 181.279 244.516 160.695C229.187 140.111 193.313 143.591 193.313 143.591Z" fill="#FAB68B"/>
<path d="M76.7562 142.666C76.7562 142.666 56.5523 133.723 56.7504 114.967C56.9485 96.2116 81.598 94.5486 81.598 94.5486C81.598 94.5486 88.4647 131.146 76.7562 142.666Z" fill="#383A45"/>
<path d="M109.802 100.991C109.802 100.991 126.528 139.318 109.714 149.55C99.9201 155.508 92.9544 149.032 95.6835 159.957C98.4125 170.882 97.2241 173.405 90.9076 175.376C81.6971 178.416 73.0147 179.759 73.9281 161.896C74.8414 144.032 64.7065 102.115 84.019 100.011C101.384 98.1169 103.441 90.0771 109.802 100.991Z" fill="#FAB68B"/>
<path d="M79.9804 96.1676C79.9804 96.1676 100.547 74.3611 112.245 90.3085C117.648 97.6765 117.087 117.269 78.3408 106.179C78.3408 106.179 87.8154 128.69 74.4893 124.252C61.1631 119.813 59.9857 94.9561 79.9804 96.1676Z" fill="#383A45"/>
<path d="M78.3628 126.906C78.3628 126.906 72.9817 116.796 67.2925 121.036C61.6033 125.276 66.027 135.188 70.6928 134.99C75.3586 134.792 77.9666 132.765 78.3628 126.906Z" fill="#FAB68B"/>
<path d="M70.1756 97.5772C70.1756 97.5772 65.3558 79.6805 67.5016 77.0923C69.6474 74.5042 94.1209 68.2816 97.2131 70.4843C100.305 72.687 102.055 90.9141 101.615 91.5199C101.175 92.1256 75.1605 96.0133 70.1756 97.5772Z" fill="white"/>
<path d="M83.6008 76.861L85.3505 90.4956L90.6105 89.3172L88.8388 75.9469L83.6008 76.861Z" fill="#F05857"/>
<path d="M94.1429 79.0308L78.5939 81.7401L79.3972 86.608L95.0012 83.7335L94.1429 79.0308Z" fill="#F05857"/>
<path d="M73.9281 161.895C73.9281 161.895 57.2236 166.51 49.9388 188.548C42.654 210.586 42.3349 322.074 42.3349 322.074H123.887C123.887 322.074 125.736 195.684 111.97 177.204C98.2035 158.724 73.9281 161.895 73.9281 161.895Z" fill="#FAB68B"/>
<path d="M76.9322 145.926C76.9322 145.926 84.7783 154.737 96.982 153.151C96.982 153.151 94.2419 153.338 95.6835 159.957C95.7385 159.957 79.4522 164.197 76.9322 145.926Z" fill="#E76650"/>
<path d="M99.535 166.642L98.3685 193.163L70.8579 163.085C70.8579 163.085 53.5812 171.775 47.749 190.233C41.9167 208.691 41.0144 322.063 41.0144 322.063H126.55C126.55 322.063 121.279 199.616 118.649 188.801C116.019 177.986 105.246 169.087 99.535 166.642Z" fill="white"/>
<path d="M85.9557 248.428L106.424 188.141L148.273 199.011L125.912 259.254L85.9557 248.428Z" fill="#383A45"/>
<path d="M196.13 102.511C196.13 102.511 194.348 83.3039 198.078 79.207C201.808 75.11 234.172 70.3962 235.074 71.3874C235.977 72.3787 242.392 52.7858 226.909 50.2637C202.7 46.3209 207.168 67.0592 195.646 67.5328C184.125 68.0063 163.965 91.8834 196.13 102.511Z" fill="#383A45"/>
<path d="M195.877 104.626C195.877 104.626 189.869 93.3702 183.53 98.095C177.192 102.82 182.144 113.866 187.327 113.646C192.51 113.426 195.47 111.157 195.877 104.626Z" fill="#E76650"/>
<path d="M188.306 145.772L220.571 174.208L220.505 145.926C225.709 146.857 230.663 148.863 235.049 151.818C239.436 154.772 243.158 158.61 245.98 163.085C258.81 183.206 253.242 322.063 253.242 322.063H156.328C156.328 322.063 159.079 208.625 161.148 183.206C163.217 157.787 188.306 145.772 188.306 145.772Z" fill="#9AD4C8"/>
<path d="M206.793 184.132L183.365 153.492L184.246 152.82L206.716 182.215L213.44 171.686L214.364 172.281L206.793 184.132Z" fill="#42394A"/>
<path d="M234.04 175.453L222.232 171.015L222.618 169.98L232.499 173.702L227.823 153.272L228.901 153.03L234.04 175.453Z" fill="#42394A"/>
<path d="M185.401 147.391C185.401 147.391 190.617 198.24 231.311 233.923C247.52 248.13 242.227 322.03 242.227 322.03H156.328C156.328 322.03 155.811 204.187 157.946 189.947C161.379 167.149 173.429 149.043 185.401 147.391Z" fill="white"/>
<path d="M226.227 147.391C226.227 147.391 254.2 179.33 231.311 228.02C227.911 235.256 239.509 322.063 239.509 322.063H253.242C253.242 322.063 256.544 205.564 256.544 194.528C256.544 183.493 251.019 153.151 226.227 147.391Z" fill="white"/>
<path d="M333.87 200.784C333.87 200.784 360.391 191.433 376.116 220.046C385.557 237.238 364.715 322.063 364.715 322.063H279.675C279.675 322.063 282.239 230.487 297.567 215.52C312.896 200.553 333.87 200.784 333.87 200.784Z" fill="#62A38A"/>
<path d="M16.5849 332.339C16.5849 332.339 41.8947 279.001 104.454 280.334C167.013 281.666 188.086 309.222 241.072 262.855C268.868 238.516 369.898 225.41 395.549 332.339H16.5849Z" fill="#C5E7E2"/>
<path d="M395.549 332.339L376.204 375.324H43.6664L17.1681 332.339H395.549Z" fill="white"/>
<path d="M153.544 272.415H8.5078V375.324H153.544V272.415Z" fill="white"/>
<path d="M423.302 353.826H7.42938V375.313H423.302V353.826Z" fill="#D0C4B3"/>
<path d="M213.902 174.583L226.227 172.755L224.301 184.528L237.693 210.454L231.311 233.923C231.311 233.923 216.202 218.504 213.187 214.341L219.239 184.528L213.902 174.583Z" fill="#383A45"/>
<path d="M344.864 154.583C344.864 154.583 347.868 133.756 342.905 131.278C321.315 120.529 310.431 126.003 309.518 127.005C308.605 128.007 304.61 106.344 320.093 103.877C344.303 99.9231 333.815 119.186 345.337 119.659C356.858 120.133 377.051 143.955 344.864 154.583Z" fill="#AA5D27"/>
<path d="M345.073 156.686C345.073 156.686 351.081 145.43 357.42 150.155C363.758 154.88 358.806 165.926 353.623 165.706C348.44 165.486 345.535 163.228 345.073 156.686Z" fill="#FAB68B"/>
<path d="M318.784 182.931C323.228 183.387 327.706 182.491 331.632 180.359C335.559 178.227 338.751 174.959 340.792 170.982C340.792 170.982 342.344 191.059 321.997 194.11C321.997 194.11 322.943 187.678 318.784 182.931Z" fill="#E76650"/>
<path d="M352.501 200.354C352.501 200.354 352.501 212.91 318.211 227.194C318.211 227.194 312.104 213.251 320.093 200.762C320.093 200.784 347.01 197.039 352.501 200.354Z" fill="#FAB68B"/>
<path d="M267.031 250.003C267.031 250.003 295.246 203.361 320.093 200.806L301.925 245.961C301.925 245.961 278.915 245.718 267.031 250.003Z" fill="#62A38A"/>
<path d="M319.235 123.084C319.235 123.084 338.69 126.719 343.147 133.943C347.604 141.168 341.606 158.834 343.774 159.913C345.942 160.992 349.001 148.9 353.513 144.384C358.025 139.869 363.791 114.24 319.235 123.084Z" fill="#AA5D27"/>
<path d="M306.074 301.986C306.074 301.986 283.691 301.986 283.174 314.035C282.789 322.79 302.805 317.856 317.155 311.358C331.505 304.861 312.918 305.94 306.074 301.986Z" fill="#FAB68B"/>
<path d="M354.338 200.784C354.338 200.784 367.764 261.919 340.792 282.184C317.386 299.805 299.944 304.112 299.944 304.112L304.544 314.024C304.544 314.024 348.616 306.48 371.461 289.122C394.306 271.765 384.468 245.586 382.322 228.824C380.176 212.062 354.338 200.784 354.338 200.784Z" fill="#FAB68B"/>
<path d="M322.943 290.851C322.943 290.851 330.129 309.574 336.996 309.079C344.06 308.594 375.852 298.12 386.273 269.508C393.381 249.981 388.606 207.921 352.501 200.354L345.073 233.923C345.073 233.923 361.227 242.492 354.757 259.254C348.286 276.016 322.943 290.851 322.943 290.851Z" fill="#62A38A"/>
<path d="M324.495 296.711C324.495 296.711 313.744 302.118 303.356 299.905C292.968 297.691 290.217 301.766 293.815 301.766C297.413 301.766 309.716 310.698 324.495 296.711Z" fill="#FAB68B"/>
<path d="M317.166 172.072H316.99C314.492 171.852 313.348 166.565 313.227 166.015L314.327 165.783C314.756 167.876 315.901 170.872 317.111 170.971C317.628 170.971 318.916 170.574 320.83 165.695L321.854 166.103C320.225 170.156 318.751 172.072 317.166 172.072Z" fill="#42394A"/>
<path d="M309.518 151.389C310.916 151.389 312.049 150.255 312.049 148.856C312.049 147.457 310.916 146.323 309.518 146.323C308.12 146.323 306.987 147.457 306.987 148.856C306.987 150.255 308.12 151.389 309.518 151.389Z" fill="#383A45"/>
<path d="M320.72 153.922C322.118 153.922 323.251 152.788 323.251 151.389C323.251 149.99 322.118 148.856 320.72 148.856C319.323 148.856 318.189 149.99 318.189 151.389C318.189 152.788 319.323 153.922 320.72 153.922Z" fill="#383A45"/>
<path d="M218.381 139.395C218.381 139.395 205.253 143.217 197.308 133.161L195.877 152.479L188.262 145.772C188.262 145.772 191.002 134.582 191.035 128.503C191.068 122.423 190.254 109.031 190.254 109.031C192.893 115.625 197.183 121.428 202.711 125.882C207.546 129.741 213.069 132.649 218.986 134.45L218.381 139.395Z" fill="#E76650"/>
<path d="M195.877 76.1342C195.877 76.1342 193.148 113.095 201.808 118.921C220.362 131.422 223.146 114.901 232.092 113.635C235.669 113.128 239.465 113.932 243.911 116.399C247.542 118.415 245.286 135.331 237.132 137.16C221.803 140.607 195.107 134.098 191.883 114.263C190.782 107.148 191.2 85.3525 191.2 85.3525C191.2 85.3525 190.628 71.1011 195.877 76.1342Z" fill="#383A45"/>
<path d="M308.484 165.75L305.435 157.391C305.399 157.287 305.395 157.175 305.423 157.068C305.451 156.962 305.51 156.867 305.593 156.794C305.676 156.722 305.779 156.676 305.888 156.663C305.997 156.649 306.108 156.669 306.206 156.719L310.74 159.054L314.855 147.347L315.89 147.71L311.565 160.023C311.541 160.099 311.5 160.168 311.446 160.226C311.392 160.284 311.325 160.329 311.251 160.358C311.177 160.386 311.098 160.398 311.019 160.391C310.94 160.385 310.863 160.361 310.795 160.321L306.954 158.338L309.518 165.376L308.484 165.75Z" fill="#42394A"/>
<path d="M320.72 144.516L329.964 149.384C329.964 149.384 330.932 139.869 320.72 144.516Z" fill="#AA5D27"/>
<path d="M305.358 140.508L315.746 141.609C315.746 141.609 313.138 132.424 305.358 140.508Z" fill="#AA5D27"/>
<path d="M301.925 158.239C303.287 158.239 304.39 157.135 304.39 155.772C304.39 154.41 303.287 153.305 301.925 153.305C300.564 153.305 299.46 154.41 299.46 155.772C299.46 157.135 300.564 158.239 301.925 158.239Z" fill="#F69D80"/>
<path d="M97.158 143.646H97.037C95.3864 143.536 94.1539 141.444 93.1635 137.038L94.2639 136.796C95.4194 141.917 96.6628 142.545 97.136 142.578C98.3685 142.644 99.9421 139.88 100.679 137.875L101.714 138.261C101.472 138.767 99.601 143.646 97.158 143.646Z" fill="#42394A"/>
<path d="M105.807 126.895C107.205 126.895 108.338 125.761 108.338 124.362C108.338 122.963 107.205 121.829 105.807 121.829C104.41 121.829 103.276 122.963 103.276 124.362C103.276 125.761 104.41 126.895 105.807 126.895Z" fill="#383A45"/>
<path d="M94.352 127.699C95.7498 127.699 96.8829 126.565 96.8829 125.166C96.8829 123.767 95.7498 122.633 94.352 122.633C92.9541 122.633 91.821 123.767 91.821 125.166C91.821 126.565 92.9541 127.699 94.352 127.699Z" fill="#383A45"/>
<path d="M101.791 135.992L101.241 135.023L106.633 132.159L102.154 131.3C102.045 131.279 101.946 131.225 101.867 131.147C101.789 131.068 101.736 130.968 101.714 130.86L99.8651 121.025L100.966 120.816L102.737 130.287L108.371 131.388C108.482 131.411 108.584 131.467 108.662 131.548C108.74 131.63 108.791 131.734 108.808 131.846C108.824 131.958 108.806 132.073 108.756 132.174C108.705 132.275 108.625 132.359 108.525 132.413L101.791 135.992Z" fill="#42394A"/>
<path d="M94.1759 118.183L84.2721 121.586C84.2721 121.586 84.7343 112.049 94.1759 118.183Z" fill="#383A45"/>
<path d="M111.144 116.741L100.701 116.256C100.701 116.256 104.718 107.577 111.144 116.741Z" fill="#383A45"/>
<path d="M112.267 134.825C113.628 134.825 114.732 133.72 114.732 132.358C114.732 130.995 113.628 129.891 112.267 129.891C110.906 129.891 109.802 130.995 109.802 132.358C109.802 133.72 110.906 134.825 112.267 134.825Z" fill="#F69D80"/>
<path d="M84.8993 134.23C86.2607 134.23 87.3643 133.125 87.3643 131.763C87.3643 130.4 86.2607 129.296 84.8993 129.296C83.538 129.296 82.4344 130.4 82.4344 131.763C82.4344 133.125 83.538 134.23 84.8993 134.23Z" fill="#F69D80"/>
<path d="M329.205 165.882C330.566 165.882 331.67 164.778 331.67 163.415C331.67 162.053 330.566 160.948 329.205 160.948C327.843 160.948 326.74 162.053 326.74 163.415C326.74 164.778 327.843 165.882 329.205 165.882Z" fill="#F69D80"/>
<path d="M233.831 102.137C235.229 102.137 236.362 101.003 236.362 99.6038C236.362 98.2048 235.229 97.0707 233.831 97.0707C232.433 97.0707 231.3 98.2048 231.3 99.6038C231.3 101.003 232.433 102.137 233.831 102.137Z" fill="#383A45"/>
<path d="M220.296 105.044C221.693 105.044 222.827 103.91 222.827 102.511C222.827 101.112 221.693 99.9783 220.296 99.9783C218.898 99.9783 217.765 101.112 217.765 102.511C217.765 103.91 218.898 105.044 220.296 105.044Z" fill="#383A45"/>
<path d="M234.92 116.256L233.886 115.882L236.461 108.855L232.609 110.837C232.538 110.867 232.461 110.883 232.384 110.883C232.306 110.883 232.23 110.867 232.158 110.837C232.084 110.809 232.018 110.764 231.963 110.707C231.907 110.65 231.865 110.582 231.839 110.507L227.514 98.205L228.549 97.8306L232.664 109.549L237.209 107.203C237.308 107.152 237.419 107.132 237.529 107.146C237.639 107.16 237.742 107.207 237.825 107.28C237.908 107.354 237.967 107.452 237.994 107.56C238.022 107.667 238.017 107.781 237.979 107.886L234.92 116.256Z" fill="#42394A"/>
<path d="M220.01 92.9075L210.689 97.6323C210.689 97.6323 209.864 88.1057 220.01 92.9075Z" fill="#383A45"/>
<path d="M237.957 89.6035L227.536 90.3304C227.536 90.3304 230.464 81.2444 237.957 89.6035Z" fill="#383A45"/>
<path d="M241.49 108.756C242.851 108.756 243.955 107.651 243.955 106.289C243.955 104.926 242.851 103.822 241.49 103.822C240.128 103.822 239.025 104.926 239.025 106.289C239.025 107.651 240.128 108.756 241.49 108.756Z" fill="#F69D80"/>
<path d="M214.199 116.399C215.561 116.399 216.664 115.295 216.664 113.932C216.664 112.57 215.561 111.465 214.199 111.465C212.838 111.465 211.734 112.57 211.734 113.932C211.734 115.295 212.838 116.399 214.199 116.399Z" fill="#F69D80"/>
<path d="M347.813 160.188L346.789 159.781C348.44 155.64 350.212 153.613 352.215 153.591C355.054 153.591 356.924 157.843 357.001 157.997L355.989 158.437C355.538 157.391 353.975 154.671 352.215 154.671C350.762 154.715 349.232 156.609 347.813 160.188Z" fill="#42394A"/>
<path d="M340.814 130.276C340.814 130.276 333.683 153.492 345.821 148.856C357.959 144.219 351.939 127.027 340.814 130.276Z" fill="#AA5D27"/>
<path d="M231.729 124.604C230.144 124.604 228.659 122.699 227.063 118.624L228.098 118.227C230.001 123.106 231.322 123.558 231.806 123.503C233.127 123.382 234.26 119.957 234.59 118.316L235.691 118.536C235.569 119.131 234.425 124.384 231.927 124.593L231.729 124.604Z" fill="#F4EEDB"/>
<path d="M233.82 68.1054H232.719C232.873 62.1692 231.619 58.0833 228.967 55.9907C228.06 55.315 227.02 54.8407 225.916 54.5995C224.811 54.3583 223.668 54.3557 222.562 54.592L222.287 53.4907C223.554 53.2052 224.867 53.1982 226.136 53.4701C227.405 53.742 228.6 54.2864 229.638 55.0656C232.576 57.4114 233.985 61.7948 233.82 68.1054Z" fill="#F4EEDB"/>
<path d="M229.66 71.5857C229.033 64.6142 226.887 60.1758 223.278 58.3696C217.776 55.6163 210.447 60.0987 210.37 60.1428L209.787 59.2177C210.106 59.0084 217.666 54.3498 223.762 57.3784C227.734 59.3498 230.089 64.0856 230.761 71.4646L229.66 71.5857Z" fill="#F4EEDB"/>
<path d="M190.881 110.221H189.781C189.858 103.613 188.438 102.06 187.58 101.685C186.094 101.058 184.169 102.897 184.158 102.908L183.387 102.126C183.486 102.027 185.852 99.7581 188.009 100.672C190.166 101.586 190.947 104.626 190.881 110.221Z" fill="#42394A"/>
<path d="M204.571 74.6585C204.571 74.6585 203.998 92.2799 201.478 94.6038C197.671 98.0399 192.235 97.0597 192.235 97.0597C192.235 97.0597 188.823 64.9116 204.571 74.6585Z" fill="#383A45"/>
<path d="M73.5979 131.443L72.4975 131.157C73.4219 127.666 73.3008 125.309 72.1454 124.329C70.9899 123.349 68.492 123.965 67.6777 124.329L67.2375 123.316C67.3805 123.25 70.8249 121.752 72.8607 123.492C74.4233 124.78 74.6543 127.457 73.5979 131.443Z" fill="#42394A"/>
<path d="M72.0683 198.053C71.9797 198.053 71.8924 198.03 71.8153 197.986C71.7338 197.943 71.6643 197.88 71.6125 197.803C71.5608 197.726 71.5284 197.638 71.5181 197.546L69.3173 168.526L70.4177 168.438L72.6186 196.599L87.4523 188.185C87.5389 188.133 87.6377 188.106 87.7384 188.106C87.8391 188.106 87.9379 188.133 88.0245 188.185L95.1002 192.854L94.495 193.768L87.6944 189.286L72.4095 197.964C72.3073 198.028 72.1883 198.058 72.0683 198.053Z" fill="#61CFBF"/>
<path d="M100.944 192.447L99.8431 192.238L101.714 182.887C101.729 182.807 101.761 182.731 101.809 182.664C101.856 182.597 101.918 182.542 101.989 182.502C102.064 182.469 102.144 182.453 102.225 182.453C102.307 182.453 102.387 182.469 102.462 182.502L113.224 186.962L102.792 171.312L103.706 170.695L115.139 187.854C115.205 187.953 115.238 188.07 115.233 188.189C115.227 188.307 115.183 188.421 115.108 188.513C115.032 188.604 114.929 188.669 114.814 188.697C114.698 188.726 114.577 188.716 114.468 188.669L102.66 183.779L100.944 192.447Z" fill="#61CFBF"/>
<path d="M244.736 282.746C244.736 282.746 258.855 291.854 260.604 294.056C263.971 298.285 252.131 294.519 252.131 294.519C252.131 294.519 265.424 305.984 258.447 312.9C251.471 319.817 228.373 300.389 228.373 295.422C228.373 290.455 237.033 279.618 244.736 282.746Z" fill="#FAB68B"/>
<path d="M86.616 224.496C86.616 224.496 93.9888 215.685 95.6285 214.705C98.7647 212.777 95.2873 220.949 95.2873 220.949C95.2873 220.949 104.091 212.458 108.184 217.766C112.278 223.075 96.4318 235.002 90.5115 234.991C87.1222 234.98 83.8429 229.441 86.616 224.496Z" fill="#FAB68B"/>
<path d="M248.864 295.12L241.766 305.553L242.676 306.173L249.773 295.74L248.864 295.12Z" fill="#42394A"/>
<path d="M243.729 303.689L243.068 304.569L256.25 314.493L256.912 313.613L243.729 303.689Z" fill="#42394A"/>
<path d="M245.125 300.182L244.463 301.062L257.875 311.158L258.536 310.278L245.125 300.182Z" fill="#42394A"/>
<path d="M247.69 297.846L247.07 298.756L257.9 306.161L258.521 305.252L247.69 297.846Z" fill="#42394A"/>
<path d="M247.377 281.05C247.377 281.05 200.719 231.489 175.332 170.508C175.332 170.508 160.521 164.241 160.366 195.376C160.212 226.511 205.396 295.29 228.362 304.057C228.362 304.057 247.377 294.056 247.377 281.05Z" fill="white"/>
<path d="M218.139 298.814L217.831 297.713C217.941 297.713 229.231 294.266 242.04 275.257L242.953 275.862C229.891 295.29 218.612 298.671 218.139 298.814Z" fill="#61CFBF"/>
<path d="M191.398 199.572C191.31 199.275 182.078 170.53 170.578 168.294L170.787 167.193C182.892 169.561 192.07 198.031 192.455 199.22L191.398 199.572Z" fill="#61CFBF"/>
<path d="M112.245 189.66C112.245 189.66 116.955 208.174 107.535 229.947L139.15 238.527C139.15 238.527 154.809 203.141 148.251 195.696C141.692 188.251 112.245 189.66 112.245 189.66Z" fill="white"/>
<path d="M348.891 230.498H348.836L326.828 225.972L320.379 230.377L319.752 229.474L326.355 224.903C326.479 224.825 326.627 224.794 326.773 224.815L348.484 229.298C351.619 221.158 353.894 212.712 355.274 204.099L356.374 204.264C354.981 213.126 352.646 221.813 349.408 230.179C349.362 230.276 349.289 230.358 349.197 230.415C349.105 230.471 348.999 230.5 348.891 230.498Z" fill="#42394A"/>
<path d="M301.925 227.745C301.795 227.746 301.67 227.699 301.573 227.613C301.507 227.558 301.454 227.489 301.419 227.411C301.385 227.332 301.37 227.247 301.375 227.161C301.848 216.753 310.872 204.396 311.279 203.879L312.17 204.528C312.082 204.65 303.367 216.533 302.541 226.478L311.95 224.154C312.058 224.128 312.172 224.135 312.276 224.174C312.38 224.213 312.47 224.283 312.533 224.375L314.239 226.875L313.337 227.502L311.84 225.3L302.079 227.712L301.925 227.745Z" fill="#42394A"/>
<path d="M356.429 237.161L355.329 236.886C361.568 212.733 371.835 213.449 372.242 213.493L372.132 214.595L372.187 214.044L372.132 214.595C372.066 214.573 362.404 214.033 356.429 237.161Z" fill="#42394A"/>
<path d="M353.238 265.686L352.215 265.267C360.215 245.796 353.436 233.108 353.315 232.976L354.283 232.447C354.404 232.58 361.436 245.73 353.238 265.686Z" fill="#42394A"/>
<path d="M342.916 308.264C337.722 306.259 328.776 289.354 328.401 288.638L329.37 288.131C329.458 288.296 338.492 305.378 343.312 307.239L342.916 308.264Z" fill="#42394A"/>
<path d="M283.669 246.148L282.668 245.707C282.921 245.135 288.951 231.544 296.192 224.969L296.929 225.784C289.864 232.194 283.735 246.005 283.669 246.148Z" fill="#42394A"/>
<path d="M300.47 303.992L299.41 304.289L302.273 314.546L303.333 314.249L300.47 303.992Z" fill="#42394A"/>
<path d="M300.493 306.202L289.683 309.86L290.035 310.903L300.845 307.245L300.493 306.202Z" fill="#42394A"/>
<path d="M301.097 309.185L288.582 313.831L288.964 314.863L301.48 310.218L301.097 309.185Z" fill="#42394A"/>
<path d="M301.926 311.558L293.328 315.382L293.775 316.389L302.373 312.565L301.926 311.558Z" fill="#42394A"/>
<path d="M205.011 285.18C182.078 263.637 170.898 243.758 165.505 230.884C159.684 216.885 159.31 208.13 159.288 207.755H160.388C160.388 208.108 162.204 243.483 205.759 284.42L205.011 285.18Z" fill="#61CFBF"/>
<path d="M234.788 267.338C216.576 252.547 197.935 212.954 197.748 212.557L198.749 212.095C198.936 212.48 217.457 251.853 235.481 266.479L234.788 267.338Z" fill="#61CFBF"/>
<path d="M256.896 207.755H255.795C256.577 176.764 245.671 163.592 245.561 163.471L246.398 162.755C246.849 163.272 257.688 176.29 256.896 207.755Z" fill="#61CFBF"/>
<path d="M250.568 276.071L250.007 275.113C282.789 255.763 326.046 266.248 337.491 269.607C295.356 237.899 248.147 267.118 247.663 267.404L247.08 266.479C247.575 266.159 297.193 235.432 340.528 270.565C340.629 270.648 340.698 270.764 340.724 270.892C340.75 271.02 340.731 271.153 340.671 271.27C340.603 271.381 340.501 271.466 340.379 271.512C340.257 271.558 340.124 271.562 340 271.523C339.494 271.314 288.038 253.946 250.568 276.071Z" fill="#3BC0CB"/>
<path d="M318.96 327.834V326.733C340.418 326.733 354.569 319.541 362.658 313.517C371.406 306.997 375.125 300.433 375.158 300.367L376.116 300.896C375.973 301.171 360.633 327.834 318.96 327.834Z" fill="#3BC0CB"/>
<path d="M295.014 329.586C294.728 329.431 265.809 314.64 215.476 323.539C192.037 327.691 176.829 323.275 168.212 318.848C158.815 314.035 155.007 308.286 154.886 308.043L155.811 307.449C155.954 307.68 171.129 330.257 215.234 322.46C265.963 313.484 295.191 328.451 295.477 328.605L295.014 329.586Z" fill="#3BC0CB"/>
<path d="M199.322 316.667C190.949 316.768 182.666 314.932 175.119 311.302C167.571 307.672 160.964 302.347 155.811 295.741L156.724 295.125C161.558 301.498 167.829 306.638 175.024 310.125C186.226 315.632 205.066 319.806 231.146 308.043L231.597 309.057C219.327 314.574 208.576 316.667 199.322 316.667Z" fill="#3BC0CB"/>
<path d="M40.7172 279.453H23.0994C19.5016 279.453 16.5849 282.372 16.5849 285.972V285.983C16.5849 289.584 19.5016 292.503 23.0994 292.503H40.7172C44.3151 292.503 47.2318 289.584 47.2318 285.983V285.972C47.2318 282.372 44.3151 279.453 40.7172 279.453Z" fill="#9AD4C8"/>
<path d="M134.837 279.453H108.79C105.192 279.453 102.275 282.372 102.275 285.972V285.983C102.275 289.584 105.192 292.503 108.79 292.503H134.837C138.434 292.503 141.351 289.584 141.351 285.983V285.972C141.351 282.372 138.434 279.453 134.837 279.453Z" fill="#9AD4C8"/>
<path d="M83.2267 238.736C82.8965 234.386 81.0459 230.292 77.9996 227.172L78.7369 226.346C82.0024 229.651 83.9842 234.013 84.3271 238.648L83.2267 238.736Z" fill="#42394A"/>
<path d="M437.641 375.324H7.42938V388.21H437.641V375.324Z" fill="#AEA598"/>
<path d="M317.034 124.979C312.423 113.271 318.718 109.868 318.982 109.725L319.488 110.705L319.235 110.221L319.488 110.705C319.257 110.826 313.832 113.844 318.057 124.582L317.034 124.979Z" fill="#42394A"/>
<path d="M322.745 125.177C318.487 114.989 327.598 110.992 327.697 110.958L328.126 111.972C327.785 112.115 319.928 115.595 323.725 124.747L322.745 125.177Z" fill="#42394A"/>
<path d="M327.356 125.353C327.059 122.798 327.543 120.804 328.776 119.439C329.319 118.872 329.969 118.419 330.689 118.105C331.409 117.791 332.183 117.623 332.968 117.611V118.712C331.697 118.75 330.491 119.279 329.601 120.188C329.068 120.899 328.694 121.716 328.505 122.585C328.315 123.453 328.313 124.352 328.5 125.221L327.356 125.353Z" fill="#42394A"/>
<path d="M70.9019 163.085C70.9019 163.085 36.3155 165.805 31.9138 225.024C30.8134 240.443 87.3643 239.265 88.4097 238.692C89.4551 238.119 87.2212 228.141 85.8347 224.672C84.4481 221.203 54.2745 224.672 54.2745 224.672C54.2745 224.672 68.8991 188.019 68.2279 185.42C67.5566 182.821 76.426 167.49 70.9019 163.085Z" fill="#FFFAEF"/>
<path d="M34.2798 205.949C34.2798 205.949 58.4121 207.634 57.4987 210.509C56.5854 213.383 52.6018 226.765 52.6018 226.765C52.6018 226.765 84.7893 226.027 86.616 224.496C88.4427 222.965 92.9874 236.952 90.5115 234.992C90.1263 234.683 39.5178 248.791 31.9138 242.58C24.3099 236.368 34.2798 205.949 34.2798 205.949Z" fill="#FAB68B"/>
<path d="M60.1067 214.396C60.1067 214.396 33.2784 209.253 31.9138 206.577C30.5493 203.901 42.577 180.839 50.39 174.429C50.368 174.429 65.928 191.632 60.1067 214.396Z" fill="white"/>
<path d="M60.811 210.718L59.7656 210.355C65.7629 192.931 64.4204 183.273 62.2416 178.25C59.9087 172.909 56.1232 171.521 56.1232 171.51L56.4753 170.464C56.6294 170.519 60.3488 171.819 62.9018 177.017C65.4548 182.215 67.1274 192.282 60.811 210.718Z" fill="#61CFBF"/>
<path d="M93.8365 223.448L92.8624 223.96L96.727 231.321L97.7011 230.809L93.8365 223.448Z" fill="#42394A"/>
<path d="M100.965 219.021L94.3712 224.639L95.0846 225.478L101.679 219.859L100.965 219.021Z" fill="#42394A"/>
<path d="M104.036 220.126L95.2588 227.612L95.9725 228.451L104.75 220.964L104.036 220.126Z" fill="#42394A"/>
<path d="M105.059 222.603L96.3327 229.58L97.0196 230.441L105.746 223.464L105.059 222.603Z" fill="#42394A"/>
</svg>
