<svg width="524" height="524" viewBox="0 0 524 524" fill="none" xmlns="http://www.w3.org/2000/svg">
<path d="M196.81 423.259C196.81 423.259 51.8066 344.726 58.5411 279.358C67.9104 218.772 131.165 280.102 159.041 227.858C169.541 180.358 127.186 122.201 164.906 101.279C216.84 72.4916 302.585 149.378 291.149 131.202C266.654 92.3036 267.406 63.4627 305.493 74.0636C355.676 88.0906 440.549 166.986 432.105 195.434C423.66 223.881 354.547 206.427 385.488 238.16C457.513 312.027 434.701 407.448 366.016 384.686C338.47 375.563 272.462 335.154 285.959 374.447C308.185 439.102 297.236 492.79 196.81 423.259Z" fill="#61CFBF"/>
</svg>
