<svg width="524" height="524" viewBox="0 0 524 524" fill="none" xmlns="http://www.w3.org/2000/svg">
<path d="M196.81 423.259C196.81 423.259 51.8065 344.726 58.541 279.358C67.9104 218.772 131.165 280.102 159.041 227.858C169.541 180.358 127.186 122.201 164.905 101.279C216.84 72.4916 302.585 149.378 291.149 131.202C266.654 92.3035 267.406 63.4626 305.493 74.0635C355.676 88.0906 440.549 166.986 432.105 195.433C423.66 223.881 354.547 206.427 385.488 238.16C457.513 312.027 434.701 407.448 366.016 384.686C338.47 375.563 272.462 335.154 285.959 374.447C308.185 439.102 297.236 492.79 196.81 423.259Z" fill="#61CFBF"/>
<path d="M34.7042 223.462C34.0716 234.562 40.5966 246.935 51.5425 249.054C62.4884 251.173 72.2278 243.094 83.0157 241.245C90.4039 239.98 97.9947 241.685 105.496 241.669C112.997 241.653 121.38 239.242 124.815 232.584C126.611 228.552 127.047 224.037 126.056 219.716C124.55 211.628 120.898 204.078 115.482 197.858C110.066 191.638 103.085 186.977 95.273 184.364C68.0373 175.77 36.3283 194.479 34.7042 223.462Z" fill="#61CFBF"/>
</svg>
